<svg width="50" height="50" viewBox="0 0 50 50" fill="none" xmlns="http://www.w3.org/2000/svg">
<rect width="50" height="50" rx="10" fill="#F8C1CA" fill-opacity="0.74"/>
<path d="M35.4 35.4002V27.7822C35.4 24.0382 34.594 21.1782 30.226 21.1782C28.12 21.1782 26.716 22.3222 26.144 23.4142H26.092V21.5162H21.958V35.4002H26.274V28.5102C26.274 26.6902 26.612 24.9482 28.848 24.9482C31.058 24.9482 31.084 27.0022 31.084 28.6142V35.3742H35.4V35.4002Z" fill="#D73234"/>
<path d="M14.938 21.5161H19.254V35.4001H14.938V21.5161Z" fill="#D73234"/>
<path d="M17.0961 14.6001C15.7181 14.6001 14.6001 15.7181 14.6001 17.0961C14.6001 18.4741 15.7181 19.6181 17.0961 19.6181C18.4741 19.6181 19.5921 18.4741 19.5921 17.0961C19.5921 15.7181 18.4741 14.6001 17.0961 14.6001Z" fill="#D73234"/>
</svg>
