<svg width="70" height="70" viewBox="0 0 70 70" fill="none" xmlns="http://www.w3.org/2000/svg">
<path d="M68.3829 53.8037C66.6369 50.4548 64.3115 47.3884 62.2475 44.2769C61.9965 43.864 61.2995 43.9846 61.0841 44.2957C59.879 46.1472 58.4995 48.0289 57.8783 50.1445L57.7911 50.1596C47.2991 52.7964 35.4228 45.358 26.9384 39.889C17.1526 33.6408 7.8597 25.5731 2.86271 14.8453C2.44311 13.4574 2.00817 11.981 1.7475 10.4743C1.62483 9.76532 0.666385 9.93115 0.701923 10.6552C0.747924 10.9211 0.793925 11.187 0.839927 11.4529C0.4914 11.5132 0.276007 11.8243 0.352675 12.2674C0.608478 13.2272 1.03854 14.1569 1.38148 15.1016C6.23396 38.9985 33.7616 58.0595 57.025 55.5863C56.4861 57.14 56.0499 58.767 55.4239 60.3359C55.0954 61.0316 55.9 61.5313 56.4946 61.3372C60.7438 59.9632 64.2967 57.1576 68.0288 54.8691C68.3618 54.7202 68.649 54.3054 68.3829 53.8037ZM57.3205 59.3689C57.6441 58.1262 57.7931 56.9138 58.2037 55.6562C58.3014 55.1827 57.9786 54.8736 57.7018 54.8302C57.6558 54.5643 57.4509 54.4171 57.1742 54.3738C35.7364 54.4318 16.3335 42.9104 6.67122 24.4094C12.1004 31.4113 19.5393 37.0614 26.707 41.6631C31.9585 45.0448 37.3947 47.9378 43.1593 50.1352C47.6685 51.8195 53.1926 53.1457 57.6371 50.8252C57.4983 51.5794 58.6053 51.753 58.8618 51.1609C59.7338 49.4583 60.6212 47.8443 61.611 46.3039C63.3061 48.8403 65.0885 51.3614 66.5375 54.0316C63.5285 55.8302 60.5806 57.9833 57.3205 59.3689Z" fill="#88B2C4"/>
</svg>
