<svg width="50" height="50" viewBox="0 0 50 50" fill="none" xmlns="http://www.w3.org/2000/svg">
<rect width="50" height="50" rx="10" fill="#F8C1CA" fill-opacity="0.74"/>
<path fill-rule="evenodd" clip-rule="evenodd" d="M34.2118 15.7784C31.7677 13.3432 28.5172 12.0014 25.0544 12C17.9188 12 12.1115 17.7794 12.1086 24.8827C12.1076 27.1534 12.7037 29.37 13.8366 31.3239L12 38L18.8628 36.2084C20.7537 37.2349 22.8826 37.7759 25.0491 37.7766H25.0545C32.1893 37.7766 37.9973 31.9967 38 24.893C38.0014 21.4504 36.6561 18.2136 34.2118 15.7784ZM25.0544 35.6007H25.0499C23.1192 35.6 21.2257 35.0836 19.5734 34.1081L19.1807 33.8759L15.1082 34.9392L16.1952 30.9876L15.9393 30.5824C14.8622 28.8775 14.2934 26.9068 14.2944 24.8835C14.2966 18.9794 19.1236 14.176 25.0587 14.176C27.9327 14.1769 30.6343 15.2922 32.6658 17.3163C34.6972 19.3404 35.8153 22.0309 35.8144 24.8922C35.8118 30.7968 30.9851 35.6007 25.0544 35.6007ZM30.9564 27.5806C30.633 27.4194 29.0426 26.6409 28.7461 26.5333C28.4498 26.4258 28.2339 26.3724 28.0185 26.6945C27.8027 27.0166 27.1829 27.7419 26.9941 27.9566C26.8053 28.1714 26.6169 28.1984 26.2933 28.0372C25.9698 27.8761 24.9276 27.536 23.692 26.4393C22.7305 25.5857 22.0813 24.5315 21.8926 24.2094C21.7041 23.8869 21.891 23.7295 22.0345 23.5524C22.3846 23.1197 22.7353 22.666 22.8431 22.4513C22.951 22.2364 22.897 22.0483 22.816 21.8873C22.7353 21.7262 22.0884 20.1417 21.8189 19.4969C21.5561 18.8694 21.2897 18.9542 21.091 18.9443C20.9025 18.935 20.6868 18.9331 20.471 18.9331C20.2554 18.9331 19.905 19.0135 19.6084 19.336C19.3119 19.6583 18.4764 20.437 18.4764 22.0215C18.4764 23.6061 19.6355 25.1368 19.7972 25.3517C19.9588 25.5665 22.0782 28.8181 25.3229 30.2124C26.0947 30.5444 26.6971 30.7422 27.167 30.8906C27.9419 31.1356 28.6469 31.101 29.2043 31.0182C29.8259 30.9257 31.1179 30.2394 31.3877 29.4875C31.6572 28.7354 31.6572 28.091 31.5762 27.9566C31.4955 27.8223 31.2798 27.7419 30.9564 27.5806Z" fill="#D73234"/>
</svg>
