<svg width="38" height="38" viewBox="0 0 38 38" fill="none" xmlns="http://www.w3.org/2000/svg">
<path d="M32.9854 19.5C32.9854 27.5081 26.7206 34 18.9927 34C11.2647 34 5 27.5081 5 19.5C5 11.4919 11.2647 5 18.9927 5C26.7206 5 33.3536 11.4868 32.9854 19.5Z" fill="#FBFBFB"/>
<path d="M19.0228 0C10.1688 0 2.26972 6.27779 0.417581 14.8264C-0.507761 19.0978 0.115597 23.6398 2.18004 27.5048C4.16694 31.2244 7.42429 34.2307 11.3215 35.9343C15.3753 37.7069 20.0291 38.0158 24.2899 36.807C28.4003 35.6412 32.045 33.0826 34.5263 29.6479C39.7143 22.4674 39.0207 12.381 32.917 5.9469C29.3397 2.17611 24.2588 0 19.0228 0ZM28.1497 19.7706L22.9632 25.0103C21.65 26.3372 19.5744 24.327 20.8822 23.0063L23.4993 20.3625H11.0971C10.2163 20.3625 9.48147 19.6372 9.48147 18.7688C9.48147 17.9005 10.2168 17.1751 11.0971 17.1751H23.4372L20.7683 14.5428C19.4421 13.2346 21.4983 11.2057 22.8245 12.514L28.1376 17.7546C28.7009 18.3098 28.7062 19.2087 28.1497 19.7706Z" fill="black"/>
</svg>
