<svg width="248" height="142" viewBox="0 0 248 142" fill="none" xmlns="http://www.w3.org/2000/svg">
<path d="M77.4606 79.6C76.7406 80.1333 75.9673 80.56 75.1406 80.88C74.314 81.1733 73.4206 81.32 72.4606 81.32C71.3406 81.32 70.3006 81.12 69.3406 80.72C68.3806 80.2933 67.554 79.72 66.8606 79C66.1406 78.3067 65.5673 77.4933 65.1406 76.56C64.7406 75.6 64.5406 74.5733 64.5406 73.48C64.5406 72.4133 64.7406 71.4 65.1406 70.44C65.5406 69.48 66.114 68.6533 66.8606 67.96C67.554 67.24 68.3806 66.68 69.3406 66.28C70.3006 65.8533 71.3406 65.64 72.4606 65.64C73.4473 65.64 74.3673 65.8 75.2206 66.12C76.074 66.4133 76.834 66.8267 77.5006 67.36V71.68H75.2206V68.84C74.8206 68.6 74.3806 68.4267 73.9006 68.32C73.4473 68.1867 72.9673 68.12 72.4606 68.12C71.714 68.12 71.0206 68.24 70.3806 68.48C69.7406 68.72 69.194 69.0667 68.7406 69.52C68.2073 70.0267 67.794 70.6133 67.5006 71.28C67.2073 71.9467 67.0606 72.68 67.0606 73.48C67.0606 74.2533 67.194 74.9733 67.4606 75.64C67.754 76.3067 68.154 76.88 68.6606 77.36C69.1406 77.8133 69.7006 78.1867 70.3406 78.48C71.0073 78.7467 71.714 78.88 72.4606 78.88C73.1273 78.88 73.7406 78.7867 74.3006 78.6C74.8873 78.3867 75.4206 78.08 75.9006 77.68L77.4606 79.6ZM99.2028 81H93.9628V79.8C93.9628 79.56 93.9628 79.3467 93.9628 79.16C93.9628 78.9733 93.9628 78.76 93.9628 78.52C93.8561 78.7867 93.6428 79.08 93.3228 79.4C93.0295 79.72 92.6428 80.0133 92.1628 80.28C91.6561 80.6 91.0695 80.8533 90.4028 81.04C89.7628 81.2267 89.0428 81.32 88.2428 81.32C87.1228 81.32 86.0695 81.12 85.0828 80.72C84.1228 80.2933 83.2961 79.72 82.6028 79C81.8828 78.3067 81.3095 77.4933 80.8828 76.56C80.4828 75.6 80.2828 74.5867 80.2828 73.52C80.2828 72.4533 80.4828 71.44 80.8828 70.48C81.3095 69.52 81.8828 68.6933 82.6028 68C83.2961 67.28 84.1228 66.7067 85.0828 66.28C86.0695 65.8533 87.1228 65.64 88.2428 65.64C89.7628 65.64 91.0161 65.96 92.0028 66.6C92.9895 67.24 93.6428 67.9333 93.9628 68.68C93.9628 68.2533 93.9761 67.8133 94.0028 67.36C94.0561 66.9067 94.0961 66.4533 94.1228 66H96.2028V78.6H99.2028V81ZM88.2428 68.12C87.4428 68.12 86.6961 68.2667 86.0028 68.56C85.3095 68.8267 84.7361 69.2267 84.2828 69.76C83.8028 70.24 83.4428 70.8 83.2028 71.44C82.9628 72.0533 82.8428 72.7333 82.8428 73.48C82.8428 74.3067 83.0028 75.08 83.3228 75.8C83.6428 76.4933 84.0961 77.08 84.6828 77.56C85.1361 77.96 85.6561 78.28 86.2428 78.52C86.8561 78.76 87.5228 78.88 88.2428 78.88C88.9895 78.88 89.6828 78.7467 90.3228 78.48C90.9895 78.2133 91.5628 77.8533 92.0428 77.4C92.5495 76.92 92.9495 76.3467 93.2428 75.68C93.5361 74.9867 93.6828 74.2533 93.6828 73.48C93.6828 72.7067 93.5361 71.9867 93.2428 71.32C92.9495 70.6267 92.5495 70.0533 92.0428 69.6C91.5628 69.12 90.9895 68.76 90.3228 68.52C89.6828 68.2533 88.9895 68.12 88.2428 68.12ZM110.322 81H102.002V78.6H105.082V68.4H102.322V66H107.242L107.362 68.08C107.415 68.64 107.428 68.9467 107.402 69C107.402 69.0267 107.428 69.32 107.482 69.88C107.802 69.2133 108.202 68.6267 108.682 68.12C109.162 67.5867 109.682 67.1467 110.242 66.8C110.802 66.4267 111.348 66.1467 111.882 65.96C112.442 65.7733 112.975 65.68 113.482 65.68L113.322 68.16C112.602 68.16 111.922 68.2667 111.282 68.48C110.642 68.6667 110.082 68.9467 109.602 69.32C108.988 69.7733 108.495 70.3467 108.122 71.04C107.775 71.7067 107.602 72.4533 107.602 73.28V78.6H110.322V81ZM129.898 79C129.178 79.72 128.325 80.2933 127.338 80.72C126.378 81.12 125.352 81.32 124.258 81.32C123.138 81.32 122.098 81.12 121.138 80.72C120.178 80.2933 119.338 79.72 118.618 79C117.898 78.3067 117.325 77.4933 116.898 76.56C116.498 75.6 116.298 74.5733 116.298 73.48C116.298 72.4133 116.498 71.4 116.898 70.44C117.325 69.48 117.898 68.64 118.618 67.92C119.338 67.2267 120.178 66.68 121.138 66.28C122.098 65.8533 123.138 65.64 124.258 65.64C125.352 65.64 126.378 65.8533 127.338 66.28C128.325 66.68 129.192 67.2267 129.938 67.92C130.632 68.64 131.178 69.48 131.578 70.44C132.005 71.4 132.218 72.4133 132.218 73.48C132.218 74.5733 132.005 75.6 131.578 76.56C131.178 77.4933 130.618 78.3067 129.898 79ZM120.418 77.28C120.898 77.7867 121.458 78.1867 122.098 78.48C122.738 78.7467 123.432 78.88 124.178 78.88C124.925 78.88 125.618 78.7467 126.258 78.48C126.925 78.1867 127.512 77.7867 128.018 77.28C128.498 76.8 128.872 76.24 129.138 75.6C129.432 74.96 129.578 74.2667 129.578 73.52C129.578 72.7733 129.432 72.08 129.138 71.44C128.872 70.7733 128.498 70.1867 128.018 69.68C127.512 69.2 126.925 68.8267 126.258 68.56C125.618 68.2667 124.925 68.12 124.178 68.12C123.432 68.12 122.738 68.2667 122.098 68.56C121.458 68.8267 120.898 69.2 120.418 69.68C119.912 70.1867 119.512 70.7733 119.218 71.44C118.952 72.08 118.818 72.76 118.818 73.48C118.818 74.2533 118.952 74.96 119.218 75.6C119.512 76.24 119.912 76.8 120.418 77.28ZM143.329 81H135.009V78.6H138.009V53.4H135.289V51H140.529V78.6H143.329V81ZM154.462 81H146.142V78.6H149.142V53.4H146.422V51H151.662V78.6H154.462V81ZM165.595 81H157.275V78.6H160.195V68.4H157.275V66H162.715V78.6H165.595V81ZM163.195 60.44C163.195 60.92 163.022 61.3333 162.675 61.68C162.328 62 161.942 62.16 161.515 62.16C161.088 62.16 160.688 62 160.315 61.68C159.968 61.3333 159.795 60.92 159.795 60.44C159.795 59.9333 159.968 59.52 160.315 59.2C160.688 58.8533 161.088 58.68 161.515 58.68C161.942 58.68 162.328 58.8533 162.675 59.2C163.022 59.52 163.195 59.9333 163.195 60.44ZM176.328 68.12C175.448 68.12 174.648 68.2933 173.928 68.64C173.234 68.96 172.634 69.4133 172.128 70C171.728 70.5067 171.421 71.0933 171.208 71.76C170.994 72.4267 170.928 73.1333 171.008 73.88C172.528 73.2933 174.034 72.7067 175.528 72.12C177.048 71.5333 178.568 70.96 180.088 70.4C179.661 69.7067 179.128 69.16 178.488 68.76C177.848 68.3333 177.128 68.12 176.328 68.12ZM181.488 79.2C180.821 79.8667 180.048 80.3867 179.168 80.76C178.314 81.1333 177.368 81.32 176.328 81.32C175.234 81.32 174.194 81.12 173.208 80.72C172.248 80.2933 171.421 79.7333 170.728 79.04C170.008 78.32 169.434 77.4933 169.008 76.56C168.608 75.6 168.408 74.5733 168.408 73.48C168.408 72.4133 168.608 71.4 169.008 70.44C169.434 69.48 170.008 68.64 170.728 67.92C171.421 67.2267 172.248 66.68 173.208 66.28C174.194 65.8533 175.234 65.64 176.328 65.64C177.154 65.64 177.941 65.8 178.688 66.12C179.434 66.44 180.114 66.8667 180.728 67.4C181.314 67.96 181.821 68.6133 182.248 69.36C182.701 70.1067 183.048 70.92 183.288 71.8C181.341 72.5467 179.408 73.2933 177.488 74.04C175.568 74.76 173.634 75.4933 171.688 76.24C172.141 77.04 172.768 77.68 173.568 78.16C174.368 78.64 175.288 78.88 176.328 78.88C177.048 78.88 177.714 78.76 178.328 78.52C178.941 78.2533 179.474 77.88 179.928 77.4L181.488 79.2Z" fill="black"/>
<path d="M161.555 98.0108C161.555 98.1975 161.489 98.3575 161.355 98.4908C161.222 98.6108 161.075 98.6708 160.915 98.6708C160.742 98.6708 160.589 98.6108 160.455 98.4908C160.322 98.3575 160.255 98.1975 160.255 98.0108C160.255 97.8375 160.322 97.6908 160.455 97.5708C160.589 97.4375 160.742 97.3708 160.915 97.3708C161.075 97.3708 161.222 97.4375 161.355 97.5708C161.489 97.6908 161.555 97.8375 161.555 98.0108ZM172.517 98.6708H170.297V97.8508C170.297 97.6908 170.297 97.5441 170.297 97.4108C170.297 97.2641 170.297 97.1041 170.297 96.9308C170.204 97.1708 170.057 97.4041 169.857 97.6308C169.67 97.8441 169.444 98.0375 169.177 98.2108C168.897 98.3975 168.577 98.5441 168.217 98.6508C167.87 98.7575 167.497 98.8108 167.097 98.8108C166.537 98.8108 166.017 98.7108 165.537 98.5108C165.07 98.3108 164.657 98.0308 164.297 97.6708C163.937 97.3108 163.657 96.8975 163.457 96.4308C163.257 95.9641 163.157 95.4575 163.157 94.9108C163.157 94.3775 163.257 93.8708 163.457 93.3908C163.657 92.9108 163.937 92.4975 164.297 92.1508C164.657 91.8041 165.07 91.5308 165.537 91.3308C166.017 91.1175 166.537 91.0108 167.097 91.0108C167.47 91.0108 167.83 91.0641 168.177 91.1708C168.537 91.2775 168.857 91.4175 169.137 91.5908C169.417 91.7775 169.644 91.9775 169.817 92.1908C169.99 92.4041 170.13 92.6241 170.237 92.8508C170.224 92.4908 170.217 92.1975 170.217 91.9708C170.217 91.7441 170.217 91.4508 170.217 91.0908V84.4508H168.797V83.6708H171.037V97.8908H172.517V98.6708ZM167.097 91.8108C166.644 91.8108 166.23 91.8908 165.857 92.0508C165.484 92.2108 165.157 92.4308 164.877 92.7108C164.597 92.9908 164.377 93.3241 164.217 93.7108C164.057 94.0841 163.977 94.4841 163.977 94.9108C163.977 95.3508 164.057 95.7641 164.217 96.1508C164.39 96.5375 164.624 96.8641 164.917 97.1308C165.197 97.4108 165.517 97.6308 165.877 97.7908C166.25 97.9375 166.657 98.0108 167.097 98.0108C167.524 98.0108 167.917 97.9375 168.277 97.7908C168.65 97.6308 168.984 97.4108 169.277 97.1308C169.57 96.8641 169.797 96.5375 169.957 96.1508C170.13 95.7641 170.217 95.3508 170.217 94.9108C170.217 94.4708 170.13 94.0575 169.957 93.6708C169.784 93.2708 169.55 92.9308 169.257 92.6508C168.977 92.3841 168.65 92.1775 168.277 92.0308C167.904 91.8841 167.51 91.8108 167.097 91.8108ZM177.839 91.8108C177.332 91.8108 176.865 91.9175 176.439 92.1308C176.025 92.3441 175.679 92.6308 175.399 92.9908C175.132 93.3375 174.945 93.7308 174.839 94.1708C174.732 94.5975 174.725 95.0375 174.819 95.4908C175.725 95.1308 176.625 94.7775 177.519 94.4308C178.425 94.0708 179.332 93.7108 180.239 93.3508C179.999 92.8975 179.665 92.5308 179.239 92.2508C178.825 91.9575 178.359 91.8108 177.839 91.8108ZM180.459 97.7708C180.112 98.0908 179.719 98.3441 179.279 98.5308C178.839 98.7175 178.359 98.8108 177.839 98.8108C177.292 98.8108 176.779 98.7108 176.299 98.5108C175.832 98.3108 175.419 98.0308 175.059 97.6708C174.699 97.3108 174.419 96.8975 174.219 96.4308C174.019 95.9641 173.919 95.4575 173.919 94.9108C173.919 94.3775 174.019 93.8708 174.219 93.3908C174.419 92.9108 174.699 92.4975 175.059 92.1508C175.419 91.8041 175.832 91.5308 176.299 91.3308C176.779 91.1175 177.292 91.0108 177.839 91.0108C178.252 91.0108 178.645 91.0841 179.019 91.2308C179.392 91.3641 179.725 91.5641 180.019 91.8308C180.299 92.0708 180.545 92.3641 180.759 92.7108C180.972 93.0441 181.145 93.4108 181.279 93.8108C180.239 94.2241 179.199 94.6308 178.159 95.0308C177.132 95.4308 176.099 95.8441 175.059 96.2708C175.299 96.7908 175.665 97.2108 176.159 97.5308C176.652 97.8508 177.212 98.0108 177.839 98.0108C178.252 98.0108 178.639 97.9375 178.999 97.7908C179.359 97.6441 179.679 97.4375 179.959 97.1708L180.459 97.7708ZM191.647 91.9508C191.034 93.1641 190.42 94.3641 189.807 95.5508C189.194 96.7375 188.58 97.9308 187.967 99.1308C187.354 97.9308 186.74 96.7375 186.127 95.5508C185.514 94.3641 184.9 93.1641 184.287 91.9508H182.747V91.1708H186.447V91.9508H185.127C185.62 92.8975 186.107 93.8441 186.587 94.7908C187.067 95.7375 187.527 96.6841 187.967 97.6308C188.367 96.7375 188.814 95.8108 189.307 94.8508C189.8 93.8908 190.294 92.9241 190.787 91.9508H189.607V91.1708H193.107V91.9508H191.647Z" fill="black"/>
</svg>
