<svg width="428" height="493" viewBox="0 0 428 493" fill="none" xmlns="http://www.w3.org/2000/svg">
<path d="M398.939 296.326C395.538 286.836 391.552 276.118 384.102 270.192C382.981 263.318 379.734 257.392 377.276 250.958C374.513 243.737 373.749 235.929 371.38 228.601C369.648 223.235 366.655 219.084 362.936 215.734C361.994 213.612 361.013 211.503 359.956 209.421C354.99 199.731 348.941 190.588 342.535 181.872C335.48 172.275 325.725 173.343 315.689 177.307C313.779 178.055 312.009 179.443 310.697 181.178C297.351 180.364 284.005 179.589 270.658 178.668C263.578 178.188 256.497 177.587 249.531 176.106C243.545 174.838 237.776 172.689 231.804 171.407C231.18 170.7 230.428 170.099 229.562 169.659C219.374 164.587 208.829 155.698 198.323 164.106C194.159 167.443 190.376 171.541 186.9 175.639C183.436 179.723 180.469 184.528 175.948 187.411C173.566 188.919 172.216 190.961 171.656 193.137C160.436 199.103 150.235 208.887 147.612 220.86C144.135 222.034 141.436 224.65 140.952 228.908C140.442 233.42 143.053 239.039 147.79 239.893C151.891 240.627 155.775 241.455 159.545 241.535C160.487 242.643 161.328 243.977 162.181 244.858C165.556 248.315 169.669 251.118 174.445 251.612C174.508 251.986 174.585 252.36 174.7 252.72C176.126 257.338 180.048 260.235 184.48 260.008C185.015 260.301 185.55 260.648 185.906 260.822C187.613 261.689 189.319 262.57 191.026 263.438C191.14 263.491 191.268 263.531 191.382 263.585C192.834 266.254 195.458 268.19 199.291 268.19C205.289 268.19 208.358 263.425 208.498 258.553C208.6 258.379 208.715 258.219 208.804 258.032C211.16 253.347 210.001 248.515 206.474 245.245C208.728 237.984 212.001 231.324 216.279 225.291C217.451 225.171 218.661 224.864 219.871 224.317C228.518 220.379 238.617 221.167 247.799 221.54C250.46 221.647 252.74 220.473 254.421 218.631C256.573 220.459 258.904 222.074 261.349 223.382C261.922 223.689 262.508 223.93 263.132 224.13C268.035 229.082 272.288 234.541 275.854 240.44C275.141 241.802 274.784 243.417 274.975 245.272C275.931 254.949 276.313 264.626 276.173 274.343C274.491 273.729 272.67 273.649 270.926 274.369C269.41 274.997 267.907 275.624 266.392 276.251C260.368 278.761 256.128 287.61 262.177 292.989C262.304 293.109 262.444 293.216 262.571 293.323C261.565 296.286 260.776 299.276 260.266 302.372C259.349 308.058 258.496 315.052 260.088 320.712C261.744 326.611 266.354 328.867 271.499 330.549C278.146 332.711 284.794 334.927 291.48 336.942C297.224 338.677 302.114 338.17 306.749 333.966C310.532 330.535 314.021 326.278 315.638 321.232C316.695 317.909 316.963 314.372 317.052 310.808C317.612 310.928 318.198 311.021 318.822 311.061C331.455 311.689 344.101 311.942 356.747 311.756C368.234 311.582 381.275 312.53 392.291 308.606C396.812 307.017 400.836 301.625 398.939 296.326Z" fill="#D73234"/>
<path d="M222.278 60.9843C216.203 72.4631 213.198 85.2099 213.886 98.3437C214.561 111.157 233.663 111.237 232.988 98.3437C232.479 88.6135 234.249 79.6307 238.77 71.0883C244.743 59.8098 228.251 49.7058 222.278 60.9843Z" fill="#D73234"/>
<path d="M369.941 56.1526C368.183 46.0219 365.967 31.006 355.996 26.1342C351.297 23.8385 345.757 24.7194 342.93 29.7247C338.141 38.187 333.48 46.7426 328.959 55.3517C320.007 51.6278 309.755 49.7592 300.713 48.3043C297.351 47.7704 294.002 47.3299 290.64 46.9829C277.395 43.5126 264.049 40.4293 250.639 37.7198C248.499 36.9723 246.334 36.3317 244.131 35.9045C243.902 35.8645 243.673 35.8245 243.443 35.7844C241.024 32.9147 238.54 30.1118 235.853 27.509C235.089 26.7749 234.261 26.0542 233.421 25.3334C232.147 21.3158 230.734 17.2048 228.607 14.1483C222.647 5.55253 212.599 7.96841 208.524 14.522C206.868 15.6565 205.493 17.3917 204.729 19.861C204.487 20.6351 204.258 21.4093 204.016 22.1834C201.125 23.2379 198.565 25.3734 196.808 28.0963C196.566 28.47 196.349 28.8438 196.158 29.2175C195.318 30.1785 194.566 31.233 193.866 32.3141C193.713 32.6211 193.547 32.9147 193.356 33.195C193.255 34.1827 192.949 35.077 192.503 35.8645C192.389 36.1048 192.274 36.3317 192.134 36.5452C192.057 36.9456 191.93 37.3327 191.79 37.7198C191.663 39.0011 191.242 40.2291 190.504 41.2435C190.402 41.724 190.249 42.2045 190.058 42.645C189.918 43.299 189.701 43.9397 189.409 44.527C189.409 44.5537 189.409 44.5804 189.396 44.5937C188.415 48.1308 187.88 51.9748 187.104 55.3117L185.537 62.0521C184.225 63.8006 183.423 66.043 183.194 68.4322C182.392 76.9745 181.678 85.5302 181.054 94.0859C179.488 98.277 178.775 102.775 179.068 107.246C177.119 118.018 177.845 128.549 186.53 137.292C189.141 139.921 192.121 142.444 195.33 144.619C195.7 146.261 196.527 147.863 197.941 149.264C225.729 176.933 270.251 185.422 307.246 179.803C326.132 176.933 344.356 167.924 355.894 151.56C367.572 134.969 370.998 112.425 372.119 92.3107C372.781 80.2447 372.017 68.0852 369.941 56.1526Z" fill="white"/>
<path d="M264.635 225.518C253.135 218.924 235.777 216.255 223.284 220.686C209.938 225.411 204.704 237.29 206.792 251.385C207.289 254.695 208.015 258.006 209.517 260.688C209.95 261.903 210.434 263.078 210.995 264.145C214.497 270.912 222.787 272.474 229.333 273.996C236.592 275.677 243.953 276.692 250.41 280.803C254.421 283.366 259.579 282.111 262.483 278.627C262.508 278.627 262.521 278.627 262.546 278.614C263.705 278.574 264.839 278.374 265.934 278.013C268.226 277.346 270.417 276.131 272.123 274.369C274.606 271.807 276.058 268.136 276.402 264.492C277.192 263.184 277.739 261.609 277.892 259.767C279.013 246.26 276.975 232.605 264.635 225.518Z" fill="white"/>
<path d="M379.467 310.487C366.401 311.061 353.348 311.635 340.281 312.209C335.124 312.436 329.342 311.969 324.261 313.224C317.791 314.839 316.721 319.47 315.002 325.143C314.2 327.786 309.08 332.591 306.457 335.234C303.095 338.637 299.555 341.841 296.052 345.084C288.946 351.651 282.209 358.391 276.657 366.386C275.829 367.508 275.052 368.669 274.339 369.91C272.34 373.447 272.594 376.824 274.084 379.467C274.263 380.575 274.619 381.696 275.218 382.79C276.071 384.365 277.51 385.7 279.191 386.608C281.522 389.251 285.151 390.118 288.844 389.584C302.904 387.529 315.766 381.015 328.323 374.355C334.5 371.605 340.689 368.909 346.674 365.759C363.383 356.99 385.414 344.403 388.687 323.154C389.617 317.094 386.229 310.194 379.467 310.487Z" fill="white"/>
<path d="M164.664 247.381C160.78 243.657 155.431 241.148 150.07 241.775C147.459 242.082 145.243 242.696 143.32 244.711C141.665 246.447 140.417 249.303 140.519 251.786C140.633 254.375 141.435 257.058 143.32 258.86C145.065 260.542 147.612 262.076 150.07 261.796C150.477 261.743 150.885 261.729 151.292 261.729C151.305 261.729 151.331 261.743 151.343 261.743C151.394 261.77 151.445 261.796 151.483 261.823C155.202 265.093 161.175 265.533 164.664 261.543C168.039 257.699 168.612 251.158 164.664 247.381Z" fill="white"/>
<path d="M164.436 225.758C152.146 225.758 152.121 245.779 164.436 245.779C176.725 245.779 176.75 225.758 164.436 225.758Z" fill="#D73234"/>
<path d="M155.954 267.789C150.287 265.48 144.289 265.413 138.367 266.508C133.439 267.429 130.217 274.009 131.694 278.827C133.413 284.38 138.163 286.796 143.448 285.822C143.639 285.781 143.767 285.755 143.881 285.728C143.983 285.741 144.111 285.755 144.289 285.768C144.849 285.741 145.422 285.741 145.983 285.768C146.097 285.781 146.186 285.781 146.276 285.795C146.709 285.888 147.855 286.062 148.058 286.129C149.026 286.382 149.956 286.729 150.886 287.103C155.559 288.998 161.57 285.021 162.64 280.109C163.875 274.369 160.959 269.818 155.954 267.789Z" fill="white"/>
<path d="M353.78 364.051C348.139 366.894 343.045 370.724 338.205 374.942C336.422 375.182 334.601 376.01 332.908 377.585C328.565 381.629 321.242 382.19 316.288 385.527C315.804 385.86 315.333 386.207 314.862 386.554C313.194 385.927 311.207 385.914 308.978 386.795C299.223 390.679 281.343 396.592 274.95 383.631C272.543 378.746 275.154 371.939 276.746 367.174C279.127 360.02 282.986 354.441 289.583 351.184C296.625 347.7 295.326 334.139 287.303 332.884C278.223 331.47 269.474 328.92 261.209 324.716C259.936 324.062 258.675 323.688 257.452 323.541C258.879 315.693 259.668 307.711 259.694 299.743C259.719 288.304 255.86 280.402 244.921 277.026C221.527 269.791 197.356 264.612 173.668 258.539C173.223 258.419 172.79 258.353 172.369 258.299C171.643 257.859 170.816 257.485 169.886 257.218C156.603 253.494 143.333 249.783 130.051 246.06C117.252 242.469 104.02 239.559 91.7691 234.167C89.0566 232.979 86.0638 233.86 83.746 235.702C67.2032 229.575 50.6731 223.382 33.1624 222.021C29.9404 211.036 12.8881 216.442 15.0404 228.614C15.0531 228.668 15.0658 228.735 15.0658 228.788C14.964 229.122 14.8875 229.469 14.8239 229.816C14.7729 229.896 14.722 229.963 14.6838 230.056C14.3654 230.857 14.047 231.644 13.7159 232.445C13.2575 234.22 13.2575 235.996 13.7159 237.771C14.0343 238.572 14.3527 239.359 14.6838 240.16C14.7729 240.32 14.8748 240.467 14.9767 240.614C14.7602 242.029 14.8239 243.43 15.1932 244.845L15.9955 249.984C16.1356 250.918 16.5813 251.879 17.1799 252.773C17.1671 252.974 17.1671 253.16 17.1544 253.361C16.5558 262.33 15.4097 271.3 14.5055 280.242C14.098 284.247 16.9379 287.824 20.3891 289.399C20.6056 300.477 21.8282 311.555 21.9682 322.634C22.1593 338.157 21.4334 353.693 22.4267 369.203C23.2672 382.297 24.4006 397.406 31.4559 408.698C38.9059 420.604 54.6082 426.89 67.8781 426.583C69.3554 426.543 70.6544 426.223 71.7751 425.689C72.5137 426.183 73.316 426.583 74.1565 426.824C84.6248 429.747 95.093 432.656 105.548 435.579C114.705 438.129 124.027 441.546 133.553 442.12C143.002 446.658 153.152 449.928 162.512 452.931C172.178 456.028 181.793 459.124 191.217 462.955C201.393 467.093 211.237 470.723 222.24 471.337C223.45 471.404 224.545 471.27 225.513 470.963C228.658 472.111 231.562 471.924 234.134 470.777C237.255 471.364 240.451 472.845 243.253 473.646C248.283 475.074 253.428 475.942 258.611 475.088C261.973 478.038 266.736 478.638 270.366 473.967C274.696 468.387 279.025 462.795 283.368 457.216C283.432 457.136 283.47 457.055 283.534 456.989C285.648 456.441 287.647 455.107 289.188 452.771C292.206 447.939 295.212 443.107 298.281 438.302C299.58 437.902 300.853 437.195 302.063 436.1C307.654 431.001 313.143 425.769 318.568 420.484C323.738 415.598 328.896 410.713 334.066 405.815C343.287 397.099 352.15 387.062 363.459 381.349C374.488 375.743 364.822 358.471 353.78 364.051Z" fill="#575756"/>
<path d="M327.953 371.832C322.235 371.832 319.179 376.157 318.771 380.788C316.543 379.987 313.945 380.148 311.296 381.816C304.406 386.167 296.472 391.787 288.029 389.771C285.176 389.09 282.311 389.985 280.044 391.733C278.516 388.076 276.478 384.579 276.032 380.708C275.37 374.969 277.561 368.268 278.783 362.529C280.12 360.794 281.05 358.351 280.948 356.189C280.834 353.6 280.031 350.917 278.147 349.115C276.376 347.42 273.88 345.938 271.397 346.178C271.193 346.205 270.989 346.205 270.798 346.205C270.518 346.112 270.238 346.018 269.971 345.898C268.697 345.484 267.436 345.418 266.163 345.725C266.01 345.738 265.857 345.765 265.717 345.778C265.59 345.605 265.462 345.431 265.335 345.258C264.596 344.483 263.756 343.883 262.852 343.402C262.546 343.109 262.228 342.828 261.884 342.588C260.967 341.707 259.884 341.106 258.636 340.799C257.363 340.386 256.102 340.319 254.829 340.626C253.555 340.693 252.371 341.08 251.276 341.814C249.238 343.189 247.442 345.244 246.882 347.794C246.767 348.674 246.653 349.569 246.538 350.45C246.538 352.252 246.984 353.947 247.837 355.508C248.881 357.617 250.435 358.965 252.231 360.313C252.791 360.741 253.402 360.954 254.065 361.234C254.727 361.528 255.338 361.862 256.038 361.982C257.146 362.342 258.254 362.422 259.375 362.235C258.445 366.84 257.541 371.458 257.095 376.117C256.382 383.658 258.407 389.518 261.362 396.231C263.756 401.664 263.488 407.47 263.438 413.369C263.387 419.002 263.068 424.608 262.546 430.2C256.535 435.272 258.458 448.206 268.353 448.206C271.779 448.206 274.262 446.644 275.778 444.389C278.376 442.987 280.057 440.291 280.783 437.154C280.974 436.914 281.165 436.661 281.343 436.407C282.043 435.393 282.769 434.405 283.508 433.417C286.908 433.964 290.665 432.656 293.225 428.892C295.262 425.889 296.893 422.673 298.179 419.296C298.612 419.109 299.045 418.909 299.452 418.642C300.726 417.827 301.846 416.893 302.853 415.852C302.993 415.732 303.133 415.638 303.26 415.518C306.482 412.488 309.704 409.445 312.926 406.415C314.034 405.361 314.811 403.999 315.244 402.491C317.154 401.41 319.052 400.276 320.936 399.074C323.967 397.166 325.317 394.363 325.47 391.493C326.234 391.693 327.049 391.8 327.953 391.8C340.243 391.853 340.268 371.832 327.953 371.832Z" fill="#3C3C3B"/>
<path d="M324.35 359.085C318.211 363.477 311.5 365.199 304.177 363.33C292.232 360.273 287.138 379.587 299.096 382.63C311.093 385.7 323.713 383.725 333.977 376.37C344.076 369.163 334.538 351.798 324.35 359.085Z" fill="white"/>
<path d="M254.256 333.605C250.371 321.446 231.918 326.665 235.841 338.931C238.006 345.725 238.821 352.278 238.388 359.419C238.069 364.825 243.01 369.43 247.939 369.43C253.377 369.43 257.172 364.838 257.49 359.419C258.012 350.703 256.892 341.894 254.256 333.605Z" fill="#575756"/>
<path d="M253.223 136.157C252.969 135.356 252.497 134.569 251.759 134.168C251.007 133.754 250.141 133.581 249.301 133.835C249.237 133.848 249.161 133.861 249.097 133.875C249.008 133.875 248.919 133.875 248.83 133.875C248.741 133.848 248.651 133.835 248.575 133.808C248.435 133.728 248.295 133.648 248.168 133.554C248.053 133.434 247.926 133.314 247.811 133.18C247.378 132.607 246.83 132.153 246.13 131.953C245.71 131.819 245.289 131.792 244.856 131.899C244.436 131.926 244.041 132.046 243.672 132.3C242.997 132.753 242.399 133.447 242.208 134.288C242.029 135.143 242.055 136.104 242.526 136.864C242.806 137.318 243.124 137.705 243.456 138.079C243.494 138.186 243.519 138.306 243.57 138.399C243.698 138.813 243.914 139.173 244.232 139.467C244.525 139.787 244.856 140.028 245.251 140.161C245.633 140.375 246.041 140.468 246.474 140.455C246.728 140.415 246.996 140.388 247.251 140.348C247.735 140.455 248.231 140.535 248.702 140.575C249.454 140.615 250.243 140.508 250.969 140.295C251.746 140.054 252.459 139.494 252.867 138.76C253.3 138.012 253.465 136.958 253.223 136.157Z" fill="#740708"/>
<path d="M292.053 191.816C280.375 192.75 268.289 192.857 256.675 190.975C247.072 189.426 236.897 185.676 231.587 176.546C229.46 172.889 223.946 176.239 226.085 179.91C232.032 190.134 242.921 195.273 253.822 197.208C266.353 199.437 279.394 199.49 292.053 198.476C293.772 198.343 295.236 197.035 295.236 195.139C295.236 193.457 293.772 191.682 292.053 191.816Z" fill="#740708"/>
<path d="M404.669 303.654C404.542 303.52 404.427 303.36 404.312 303.213C403.574 302.693 403.001 302.052 402.555 301.305C402.517 301.291 402.479 301.264 402.428 301.251C402.44 301.198 402.428 301.144 402.428 301.091C402.135 300.57 401.88 300.023 401.664 299.436C401.625 299.316 401.587 299.182 401.549 299.062C401.549 299.062 401.549 299.049 401.536 299.049C401.536 299.049 401.536 299.049 401.549 299.062C401.536 299.009 401.511 298.942 401.498 298.889C401.078 298.141 400.785 297.354 400.645 296.486C392.456 280.216 387.961 262.303 381.861 245.125C375.633 227.613 367.355 210.969 356.938 195.793C351.245 187.504 344.993 179.656 338.217 172.315C338.956 171.888 339.695 171.474 340.421 171.034C344.203 168.725 347.781 166.055 351.194 163.185C351.207 163.172 351.207 163.159 351.207 163.159C351.627 162.411 352.162 161.771 352.812 161.25C353.678 159.915 354.735 158.674 355.868 157.486C355.932 157.419 356.008 157.366 356.072 157.313C356.136 157.192 356.212 157.072 356.289 156.952C356.276 156.859 356.276 156.765 356.263 156.685C361.357 151.813 364.885 145.473 367.495 138.706C371.099 129.376 373.379 119.272 375.085 109.382C376.066 103.669 376.703 97.9033 376.881 92.0972C376.779 91.6033 376.716 91.1094 376.703 90.6022C376.359 89.6546 376.206 88.6135 376.244 87.5857C376.244 87.5724 376.232 87.5724 376.232 87.559C377.225 72.036 375.175 56.246 370.132 41.6039C367.75 34.6766 364.821 27.4022 358.848 23.051C355.83 20.8487 351.806 19.8076 348.367 21.5694C345.056 23.2645 342.878 27.4022 340.688 30.352C335.097 37.8666 329.507 45.3946 323.929 52.9092C303.986 47.7837 284.055 42.6583 264.112 37.5329C258.165 35.998 252.205 34.4764 246.258 32.9414C245.914 32.848 245.608 32.8346 245.302 32.848C240.107 24.3724 234.72 15.7767 227.461 9.0629C225.538 7.2877 223.5 5.4858 221.017 4.68495C218.279 3.80402 215.49 4.59152 213.045 5.9663C209.046 8.19532 205.391 11.5455 202.487 15.1894C199.431 19.0334 197.062 23.3446 195.419 28.0162C195.292 28.737 195.075 29.4444 194.757 30.0851C194.719 30.2719 194.693 30.4455 194.681 30.619C194.133 31.9804 193.611 33.3418 193.089 34.7166C192.987 35.0503 192.872 35.3707 192.719 35.6643C192.401 36.5185 192.095 37.3594 191.777 38.2137C191.624 39.2014 191.293 40.149 190.771 40.9766C187.052 51.3875 183.919 61.9987 181.462 72.8235C178.036 87.9061 174.916 103.99 177.768 119.446C180.659 135.049 189.93 147.436 201.647 156.992C196.171 159.955 191.064 163.679 186.505 168.031C181.602 172.702 177.87 178.388 173.311 183.38C168.727 188.412 162.703 191.562 158.016 196.461C154.043 200.612 151.152 205.737 148.274 210.742C145.256 216.015 142.11 221.58 137.182 225.144C137.042 225.251 136.914 225.371 136.787 225.478C134.431 224.837 131.527 227.48 133.107 230.35C135.17 234.1 138.124 237.01 141.435 239.466C141.257 239.746 141.104 240.053 141.015 240.387C140.697 241.508 140.378 242.616 140.06 243.737C139.958 244.084 139.945 244.418 139.971 244.765C111.699 236.61 83.4271 228.468 55.0406 220.82C49.7555 219.391 44.4578 217.99 39.1472 216.602C34.015 215.267 28.8064 213.732 23.4831 213.585C18.7711 213.452 13.4861 214.68 11.2702 219.552C9.79291 222.822 9.9712 226.452 10.6589 229.936C10.1495 230.523 9.83112 231.271 9.89479 232.071C12.3145 262.33 14.7469 292.575 17.1665 322.834C18.3763 338.023 19.5989 353.199 20.8087 368.389C21.3946 375.756 21.9422 383.124 22.5789 390.479C23.0756 396.205 23.7378 402.051 25.8391 407.403C28.0677 413.089 31.7991 417.747 37.1351 420.443C43.006 423.407 49.6155 424.741 55.8811 426.49C69.9024 430.401 83.9365 434.311 97.9578 438.209C125.911 445.977 153.865 453.732 181.831 461.46C195.763 465.318 209.695 469.162 223.627 472.992C230.593 474.914 237.56 476.836 244.526 478.745C248.015 479.706 251.492 480.667 254.981 481.615C256.038 481.908 257.095 482.202 258.165 482.389C258.216 482.416 258.241 482.456 258.292 482.496C258.751 482.829 259.196 483.15 259.655 483.483C260.024 483.724 260.419 483.857 260.839 483.884C261.26 483.977 261.68 483.964 262.113 483.83C262.38 483.764 262.622 483.643 262.851 483.497C263.679 483.75 264.609 483.643 265.462 483.243C273.294 479.626 278.617 472.325 283.508 465.264C286.144 461.447 288.793 457.669 291.76 454.132C295.186 450.048 298.853 446.191 302.508 442.347C317.052 427.05 331.633 411.728 347.667 398.127C356.123 390.946 364.999 384.152 371.953 375.289C372.653 374.395 372.984 373.287 372.793 372.233C373.099 371.499 373.303 370.711 373.354 369.91C373.494 367.788 372.475 365.692 370.921 364.371C369.406 363.103 367.712 362.396 365.954 361.608L365.509 361.408C373.01 356.256 379.568 349.422 384.153 341.32C389.234 332.364 390.775 321.753 388.419 311.622C393.195 310.581 397.919 309.313 402.58 307.818C404.529 307.164 405.077 305.255 404.669 303.654ZM185.002 122.463C184.569 120.954 184.238 119.446 183.945 117.924C185.129 118.845 186.314 119.766 187.498 120.687C187.753 120.888 188.097 120.994 188.466 121.061C187.918 125.132 188.147 129.19 189.79 133.114C190.147 133.981 190.567 134.822 191.013 135.65C188.428 131.579 186.352 127.187 185.002 122.463ZM194.91 121.048C194.833 120.153 194.91 119.259 195.126 118.405C195.114 117.591 195.203 116.777 195.419 116.002C195.343 115.802 195.266 115.589 195.152 115.415C195.228 115.308 195.317 115.202 195.394 115.068C199.316 108.248 208.358 110.17 214.242 112.265C220.253 114.401 228.76 116.83 229.855 124.505C230.874 131.686 228.912 139.694 222.456 143.231C216.521 146.488 209.632 145.086 204.296 141.256C201.112 138.973 198.463 135.783 196.527 132.3C194.49 128.642 194.26 124.932 194.91 121.048ZM197.189 143.752C197.508 144.059 197.813 144.352 198.145 144.646C204.945 150.706 214.28 153.709 222.901 150.279C227.002 148.65 230.593 145.914 232.975 142.016C235.229 138.319 236.146 133.835 236.337 129.457C245.277 126.667 255.363 128.602 262.482 135.116C263.717 136.25 265.538 136.424 266.812 135.263C266.685 143.311 269.588 151.36 275.204 157.006C282.069 163.906 292.486 166.936 301.719 164.267C311.079 161.557 316.008 151.84 317.905 142.364C320.503 142.804 323.101 143.258 325.712 143.698C326.578 143.845 327.38 143.845 328.17 143.365C328.832 142.964 329.456 142.163 329.634 141.376C329.825 140.522 329.774 139.561 329.316 138.8C328.895 138.119 328.22 137.398 327.418 137.265C324.578 136.784 321.726 136.29 318.886 135.81C318.784 135.797 318.682 135.783 318.567 135.77C318.402 134.008 317.829 132.353 316.695 130.818C315.218 128.803 313.244 127.174 311.219 125.799C310.608 125.386 309.984 125.025 309.347 124.665C312.875 124.571 316.402 124.278 319.854 123.931C321.56 123.757 323.037 122.516 323.037 120.594C323.037 118.925 321.573 117.084 319.854 117.257C308.545 118.405 294.969 119.886 285.787 111.264C282.744 108.408 278.223 113.106 281.279 115.989C282.807 117.417 284.425 118.618 286.093 119.633C284.807 119.593 283.533 119.579 282.247 119.579C276.236 119.593 270.212 121.582 267.882 127.908C267.818 128.082 267.78 128.269 267.754 128.442C267.64 128.682 267.538 128.949 267.474 129.27C267.372 129.75 267.296 130.217 267.22 130.698C267.143 130.604 267.079 130.498 266.978 130.418C258.572 122.743 246.691 119.713 235.929 122.663C235.254 119.166 233.739 115.962 231.039 113.52C230.568 113.093 230.071 112.692 229.562 112.305C231.192 112.318 232.555 110.597 232.555 108.982C232.555 107.033 231.09 105.805 229.371 105.645C224.226 105.151 219.119 103.616 214.509 101.173C212.128 99.9187 209.823 98.4372 207.709 96.7287C206.129 95.4474 204.168 93.8457 204.372 91.6166C204.538 89.8147 202.793 88.2798 201.188 88.2798C199.329 88.2798 198.17 89.8147 198.004 91.6166C197.686 95.1804 199.775 98.3704 202.232 100.613C203.43 101.707 204.703 102.722 206.028 103.669C204.92 103.616 203.824 103.629 202.704 103.763C197.533 104.403 192.656 106.939 189.905 111.718C189.446 112.519 189.357 113.306 189.51 114C187.46 112.399 185.409 110.81 183.346 109.209C183.244 109.128 183.117 109.075 182.99 109.022C182.659 99.0245 184.556 88.8537 186.568 79.2169C189.994 62.8129 194.897 46.7026 201.239 31.273C201.456 30.7391 201.57 30.1652 201.596 29.6179C203.06 25.627 205.2 21.9031 207.938 18.7264C209.517 16.8978 211.262 15.176 213.185 13.7478C214.891 12.4798 217.425 10.2375 219.629 11.2519C221.87 12.2796 223.818 14.562 225.525 16.3506C227.461 18.3927 229.269 20.5684 230.976 22.8241C234.401 27.3756 237.369 32.2874 240.349 37.1592C241.074 38.3471 242.17 38.7742 243.227 38.6808C243.57 38.9878 243.991 39.2281 244.538 39.3749C265.271 44.7005 286.004 50.0261 306.736 55.3517C312.684 56.8867 318.644 58.4083 324.591 59.9432C326.501 60.4371 327.889 59.1958 328.361 57.6608L341.707 39.7086C344.012 36.612 346.317 33.502 348.622 30.4054C349.373 29.391 350.265 27.8027 351.487 27.3889C352.557 27.0285 353.856 27.6558 354.76 28.2164C359.752 31.2863 362.108 37.9601 363.968 43.3658C366.362 50.3064 368.081 57.5007 369.1 64.815C369.991 71.1951 370.259 77.682 370.017 84.1288C370.144 84.9563 370.246 85.7972 370.335 86.6381C370.386 87.0251 370.501 87.5057 370.501 87.9194C370.539 88.133 370.577 88.3599 370.615 88.5734C370.845 89.8281 370.781 91.0427 370.501 92.1372C370.17 101.934 368.387 111.558 366.056 121.048C364.019 129.323 361.752 137.745 357.358 145.033C356.403 146.621 355.333 148.103 354.149 149.491C352.659 152.788 350.278 155.911 347.221 157.74C347.234 157.82 347.247 157.9 347.259 157.98C332.792 170.139 314.441 177.067 295.899 177.561C291.327 177.681 286.755 177.387 282.221 176.706C281.903 176.76 281.597 176.786 281.266 176.773H281.037C280.68 176.773 280.324 176.733 279.98 176.666C279.649 176.733 279.305 176.773 278.974 176.773C278.668 176.773 278.363 176.733 278.057 176.706C277.586 176.733 277.127 176.706 276.682 176.64C276.567 176.706 276.452 176.76 276.351 176.827C262.915 176.466 249.632 173.917 236.948 169.245C225.423 165.001 214.089 159.074 204.588 150.959C201.99 148.744 199.494 146.341 197.189 143.752ZM273.613 131.005C273.663 130.778 273.676 130.551 273.689 130.337C273.816 130.124 273.931 129.884 274.02 129.643C275.344 126.053 280.566 126.173 283.457 126.226C287.239 126.293 291.06 126.44 294.816 126.961C298.369 127.454 302.05 128.309 305.297 129.95C307.679 131.152 312.289 133.608 312.302 136.851C312.314 138.893 311.716 141.042 311.194 143.004C310.621 145.153 309.895 147.249 308.927 149.251C307.297 152.641 305.055 155.804 301.591 157.286C295.007 160.076 286.882 158.207 281.355 153.789C274.848 148.583 271.855 139.32 273.613 131.005ZM257.668 473.006C257.21 473.7 257.133 474.554 257.312 475.355C254.026 474.447 250.74 473.553 247.455 472.645C240.692 470.79 233.93 468.921 227.168 467.053C213.745 463.355 200.322 459.645 186.912 455.948C159.978 448.5 133.043 441.039 106.108 433.551C92.6982 429.827 79.2754 426.089 65.8654 422.352C59.396 420.55 52.9011 418.842 46.4572 416.92C41.4523 415.438 36.4856 413.409 33.5565 408.631C30.8822 404.28 29.8634 399.008 29.2903 393.949C28.5262 387.222 28.1441 380.441 27.5965 373.688C26.4376 359.166 25.266 344.657 24.1071 330.135C21.7766 300.984 19.4334 271.847 17.1028 242.696C16.8863 239.933 16.6571 237.17 16.4406 234.407C17.3193 233.686 17.8542 232.539 17.4594 231.057C16.7717 228.468 15.6128 224.57 17.1538 222.101C18.9112 219.285 24.1326 220.112 26.7688 220.499C30.9841 221.127 35.1357 222.395 39.2746 223.476C43.7573 224.65 48.2401 225.838 52.7101 227.039C70.4118 231.805 88.0626 236.81 105.701 241.855C127.159 247.995 148.618 254.161 170.064 260.315C170.293 260.448 170.522 260.568 170.764 260.635C171.044 260.715 171.324 260.742 171.579 260.742C184.926 264.572 198.285 268.403 211.631 272.234C221.641 275.104 231.65 277.973 241.673 280.843C245.748 282.017 250.091 282.952 253.669 285.448C256.458 287.396 258.496 290.92 257.324 294.431C257.044 295.271 257.197 296.166 257.617 296.927C255.732 307.591 255.389 318.456 255.452 329.281C255.529 341.307 255.771 353.333 256.064 365.345C256.637 389.424 257.554 413.503 258.802 437.555C259.145 444.202 259.528 450.849 259.91 457.509C260.228 462.768 260.635 468.454 257.668 473.006ZM145.765 246.407C145.943 246.126 146.084 245.819 146.185 245.486C146.415 244.658 146.657 243.831 146.899 243.016C147.739 243.51 148.58 243.977 149.42 244.445C155.049 247.528 160.894 250.184 166.867 252.493C159.825 250.464 152.795 248.435 145.765 246.407ZM259.107 275.477C258.318 276.719 258.229 278.187 258.178 279.642C258.165 279.989 258.152 280.336 258.139 280.683C256.076 279.014 253.695 277.8 251.186 276.839C246.869 275.197 242.31 274.116 237.878 272.848C234.962 272.007 232.045 271.179 229.129 270.338C229.18 270.085 229.231 269.831 229.231 269.564C229.193 269.271 229.154 268.977 229.116 268.683C228.963 268.123 228.696 267.629 228.301 267.215C227.996 266.895 227.69 266.575 227.384 266.254C227.091 265.934 226.76 265.694 226.365 265.56C225.983 265.347 225.576 265.253 225.143 265.266C224.71 265.253 224.29 265.347 223.92 265.56C223.525 265.694 223.182 265.92 222.901 266.254C222.736 266.481 222.57 266.708 222.405 266.935C222.176 267.362 222.048 267.816 222.01 268.296C219.055 267.455 216.114 266.601 213.159 265.76C214.127 260.275 210.599 255.656 210.599 250.224C210.599 244.671 212.675 239.079 214.216 233.767C215.222 233.673 216.152 233.059 216.789 232.125C223.576 222.221 237.827 221.46 248.232 223.516C254.255 224.704 260.394 226.973 265.042 231.284C269.767 235.649 272.288 241.575 273.23 248.035C274.262 255.216 273.485 262.65 272.543 269.818C271.651 270.178 270.925 270.939 270.594 271.994C270.582 272.007 270.582 272.007 270.569 272.034C270.556 272.06 270.543 272.074 270.543 272.1C270.454 272.18 270.276 272.327 270.2 272.421L270.187 272.434C270.034 272.527 269.868 272.621 269.716 272.701C269.69 272.714 269.665 272.714 269.626 272.728C269.41 272.794 269.193 272.861 268.977 272.915L268.735 272.968C268.378 273.035 268.417 273.021 268.85 272.955C268.837 273.115 265.921 272.968 265.64 272.955C264.558 272.901 263.526 272.915 262.457 273.141C261.068 273.422 259.859 274.276 259.107 275.477ZM261.896 335.394C261.871 332.925 261.845 330.442 261.833 327.959C272.161 332.537 282.489 337.129 292.817 341.707C291.149 343.429 289.48 345.137 287.812 346.859C287.188 347.5 286.564 348.154 285.94 348.821C285.431 348.287 284.717 347.927 283.775 347.927C283.113 347.927 282.578 348.114 282.132 348.394C281.814 348.127 281.445 347.914 281.024 347.78C278.605 347.033 276.21 346.179 273.867 345.204C273.574 345.084 273.294 344.964 273.001 344.844C272.95 344.817 272.632 344.684 272.441 344.603C272.301 344.537 271.855 344.337 271.804 344.323C271.524 344.19 271.231 344.056 270.951 343.923C269.779 343.376 268.62 342.788 267.474 342.188C265.984 341.4 263.959 341.72 263.119 343.389C262.355 344.91 262.673 347.113 264.265 347.954C269.092 350.503 274.147 352.612 279.343 354.214C279.751 354.334 280.171 354.334 280.591 354.267C280.63 354.347 280.655 354.427 280.693 354.494C275.93 359.993 271.842 366.079 270.314 373.461C270.25 373.754 270.238 374.035 270.238 374.315C268.264 380.575 271.804 387.555 276.898 390.932C283.291 395.177 291.518 394.456 298.611 393.081C306.24 391.613 313.562 388.783 320.707 385.674C325.19 383.725 329.596 381.629 333.964 379.414C334.231 379.761 334.537 380.081 334.919 380.294C334.83 380.455 334.741 380.601 334.639 380.762C334.346 381.122 334.028 381.482 333.709 381.829C333.314 382.003 332.932 382.27 332.576 382.684C316.135 401.664 298.586 419.589 280.044 436.3C275.37 440.518 270.607 444.642 265.806 448.713C265.717 447.339 265.628 445.95 265.551 444.576C264.889 432.496 264.316 420.403 263.832 408.324C262.851 384.005 262.202 359.699 261.896 335.394ZM365.585 368.629C365.814 368.749 366.222 368.922 366.528 369.109C366.54 369.123 366.553 369.149 366.617 369.203C366.655 369.243 366.706 369.283 366.744 369.323C365.7 370.11 365.101 371.619 365.471 372.913C359.727 379.614 352.939 385.193 346.228 390.786C338.319 397.379 330.704 404.333 323.317 411.567C315.791 418.949 308.468 426.57 301.184 434.231C294.103 441.679 286.984 449.047 280.999 457.523C276.707 463.596 272.632 470.323 266.736 474.727C266.303 474.007 265.526 473.513 264.711 473.326C266.188 469.669 266.545 465.558 266.468 461.594C266.43 459.658 266.341 457.723 266.239 455.787C267.067 455.787 267.907 455.44 268.608 454.853C287.685 438.81 305.832 421.565 322.884 403.185C327.698 397.993 332.423 392.721 337.059 387.369C337.071 387.355 337.084 387.329 337.097 387.315C337.466 387.155 337.797 386.928 338.09 386.621C338.867 385.794 339.618 384.926 340.217 383.952C340.917 382.83 341.325 381.509 341.376 380.161C341.427 378.76 340.955 377.278 340.128 376.117C340.637 375.836 341.147 375.57 341.643 375.289C347.234 372.166 352.684 368.802 358.008 365.212C360.084 366.146 362.172 367.067 364.248 368.002C364.706 368.215 365.152 368.415 365.585 368.629ZM378.358 338.437C374.716 344.684 369.749 350.049 364.07 354.307C363.242 355.348 362.147 356.149 360.899 356.483C360.236 356.656 359.587 356.87 358.937 357.097C358.721 357.177 358.504 357.257 358.288 357.324C358.059 357.457 357.829 357.591 357.6 357.737C357.231 357.991 356.836 358.178 356.454 358.325C346.151 365.385 335.352 371.632 324.12 376.904C317.816 379.867 311.385 382.617 304.75 384.659C298.65 386.541 291.556 388.41 285.176 387.128C282.311 386.554 279.522 385.34 277.739 382.83C276.121 380.548 275.599 377.932 276.631 375.303C276.796 374.862 276.834 374.408 276.758 373.954C279.229 364.384 286.666 357.377 293.212 350.65C301.782 341.827 310.366 333.005 318.949 324.169C319.688 323.408 319.955 322.527 319.892 321.699C319.943 321.459 319.981 321.219 319.981 320.965V318.563C319.994 318.109 319.904 317.668 319.701 317.281C319.612 316.974 319.446 316.707 319.255 316.467C340.293 316.721 361.408 316.561 382.192 312.823C382.204 312.97 382.217 313.117 382.255 313.277C384.293 321.953 382.79 330.856 378.358 338.437ZM332.461 309.887C327.189 309.9 321.904 309.833 316.632 309.767C319.663 295.645 321.178 281.163 321.102 266.681C321.076 262.383 314.709 262.383 314.734 266.681C314.823 282.017 313.104 297.274 309.576 312.156C309.08 314.278 310.544 316.347 312.645 316.374C312.913 316.374 313.18 316.387 313.448 316.387C313.155 317.295 313.219 318.309 313.613 319.163V320.298C308.265 325.797 302.916 331.309 297.567 336.809C297.363 336.595 297.147 336.422 296.879 336.288C285.533 331.256 274.186 326.224 262.839 321.192C262.52 321.059 262.202 320.965 261.884 320.898C262.036 312.676 262.584 304.481 264.189 296.406C264.341 295.605 264.252 294.804 263.947 294.11C264.189 292.348 264.036 290.546 263.577 288.838C263.972 288.291 264.227 287.61 264.252 286.849L264.532 279.895C264.532 279.802 264.545 279.695 264.545 279.602C264.774 279.602 265.004 279.602 265.246 279.602C267.372 279.682 269.626 279.829 271.664 279.028C273.294 278.374 274.644 277.346 275.625 275.958C275.968 275.05 276.478 274.236 277.166 273.569C277.408 272.848 277.764 272.18 278.223 271.58C278.375 271.073 278.592 270.579 278.847 270.125C280.668 255.536 281.47 239.172 270.9 227.907C260.941 217.296 244.309 214.293 230.746 216.722C223.029 218.11 215.923 221.967 211.3 228.695C211.236 228.695 211.185 228.708 211.122 228.708C210.803 229.295 210.396 229.816 209.899 230.27C209.428 231.097 208.778 231.818 207.938 232.338C206.371 237.771 204.55 243.283 204.232 248.956C204.066 251.892 204.538 254.762 205.454 257.538C206.117 259.54 207.161 261.783 206.957 263.958C196.604 260.995 186.25 258.019 175.909 255.056C178.889 246.954 182.289 239.039 186.11 231.324C186.899 229.722 186.505 227.694 184.964 226.759C183.537 225.878 181.398 226.345 180.608 227.96C177.476 234.287 174.623 240.761 172.012 247.354C165.543 245.032 159.239 242.256 153.164 238.959C148.873 236.636 144.339 234.114 141.028 230.35C145.46 226.946 148.771 222.448 151.687 217.603C154.54 212.851 157.01 207.766 160.474 203.455C164.626 198.276 170.318 195.126 175.132 190.735C180.15 186.156 183.792 180.19 188.466 175.252C193.509 169.913 199.342 165.575 205.76 162.224C206.346 161.917 206.741 161.504 207.008 161.05C214.267 166.162 222.163 170.313 229.906 173.57C244.869 179.856 260.941 183.193 277.064 183.527C277.853 183.54 278.49 183.3 278.974 182.913C288.576 184.568 298.369 184.555 307.946 183.006C307.259 183.714 306.533 184.368 305.769 184.995C304.839 185.716 303.871 186.397 302.865 186.984C302.177 187.398 301.617 188.185 301.4 188.973C301.197 189.774 301.286 190.841 301.719 191.549C302.661 193.084 304.52 193.671 306.074 192.75C309.245 190.868 312.149 188.372 314.467 185.422C315.014 184.715 315.396 184.007 315.396 183.06C315.396 182.579 315.256 182.045 315.04 181.565C321 180.097 326.82 178.001 332.398 175.332C332.55 175.639 332.729 175.946 332.996 176.239C345.26 189.4 355.754 204.255 364.172 220.392C368.349 228.388 371.991 236.676 375.085 245.192C378.358 254.215 381.135 263.438 384.166 272.554C387.604 282.845 391.412 293.042 396.506 302.559C396.531 302.599 396.544 302.626 396.57 302.653C375.735 308.646 354.022 309.847 332.461 309.887Z" fill="#740708"/>
<path d="M263.641 256.31C263.322 253.854 261.692 251.866 259.782 250.531C256.611 248.315 252.128 248.382 248.703 249.85C246.385 250.838 244.309 252.426 242.743 254.428C241.711 255.136 240.781 256.03 240.208 257.098C239.928 257.618 239.75 258.166 239.648 258.7C239.431 258.9 239.228 259.127 239.037 259.38C237.292 261.783 238.871 265.253 241.189 266.454C243.876 267.843 246.232 266.361 248.499 264.906C250.065 263.892 251.492 263.545 253.478 263.678C255.898 263.838 258.254 264.119 260.482 262.837C262.775 261.529 263.985 259.007 263.641 256.31Z" fill="#740708"/>
<path d="M223.614 255.443C223.589 255.389 223.551 255.336 223.512 255.283C223.512 255.229 223.538 255.176 223.538 255.122C223.576 254.522 223.474 253.908 223.385 253.334C223.283 252.773 223.054 252.253 222.837 251.732C222.71 251.439 222.57 251.145 222.379 250.878C222.061 250.424 221.729 249.93 221.322 249.543C220.774 249.009 220.214 248.609 219.603 248.275C219.323 247.982 219.017 247.715 218.673 247.514C217.68 246.914 216.585 246.82 215.477 247.074C214.789 247.234 214.203 247.701 213.783 248.302C213.745 248.342 213.706 248.369 213.668 248.409C213.363 248.716 213.133 249.063 213.006 249.477C212.802 249.877 212.713 250.304 212.726 250.758C212.764 251.625 213.031 252.52 213.655 253.12C213.872 253.294 214.088 253.467 214.305 253.641C214.662 253.854 215.056 253.975 215.464 254.028C215.871 255.256 216.19 256.497 216.394 257.779C216.47 258.486 216.534 259.18 216.546 259.901C216.585 261.983 218.558 263.798 220.571 263.118C221.882 262.677 223.079 261.756 223.652 260.408C223.996 259.607 224.226 258.873 224.226 257.979C224.251 257.058 223.996 256.257 223.614 255.443Z" fill="#740708"/>
<path d="M227.486 252.186C226.913 251.145 223.424 252.546 223.793 253.227C225.041 255.483 225.525 258.179 225.066 260.755C224.939 261.476 226.2 261.316 226.569 261.249C227.053 261.155 227.537 261.022 227.97 260.782C228.199 260.648 228.658 260.435 228.709 260.128C229.218 257.391 228.811 254.575 227.486 252.186Z" fill="#740708"/>
<path d="M261.87 269.044C261.476 268.817 261.068 268.804 260.622 268.804C259.693 268.817 258.788 268.884 257.871 269.07C256.904 269.271 255.859 269.684 255.095 270.338C254.331 270.992 253.784 271.753 253.491 272.754C253.249 273.582 253.401 274.409 253.809 275.13C253.987 275.437 254.535 275.571 254.841 275.611C255.299 275.651 255.872 275.544 256.292 275.33C256.662 275.144 257.082 274.877 257.26 274.476C257.413 274.142 257.4 273.862 257.222 273.542C257.247 273.595 257.273 273.635 257.286 273.689C257.197 273.488 257.146 273.288 257.107 273.075C257.107 272.888 257.133 272.701 257.184 272.527C257.26 272.327 257.362 272.154 257.464 271.98C257.515 271.913 257.579 271.847 257.63 271.78C257.655 271.753 257.693 271.74 257.719 271.713C257.782 271.687 257.846 271.66 257.91 271.62C257.986 271.593 258.075 271.566 258.152 271.553C258.203 271.54 258.254 271.526 258.304 271.513C258.521 271.486 258.75 271.46 258.967 271.446C259.387 271.42 259.807 271.406 260.215 271.406C260.66 271.406 261.246 271.153 261.603 270.886C261.87 270.686 262.24 270.312 262.265 269.938C262.329 269.551 262.189 269.231 261.87 269.044Z" fill="#740708"/>
<path d="M357.817 298.768C346.673 300.01 335.467 299.903 324.336 298.461C322.617 298.235 320.528 300.797 323.024 301.118C334.448 302.599 345.998 302.706 357.447 301.425C358.199 301.345 359.409 300.864 359.498 299.93C359.574 298.995 358.517 298.688 357.817 298.768Z" fill="#740708"/>
<path d="M389.578 293.803C388.992 293.176 387.795 293.416 387.12 293.723C386.853 293.843 386.573 293.977 386.292 294.084C386.203 294.124 385.49 294.457 385.452 294.417L385.694 294.324C385.617 294.35 385.528 294.377 385.452 294.404C385.325 294.444 385.21 294.484 385.083 294.524C384.802 294.617 384.51 294.697 384.229 294.778C383.962 294.858 383.694 294.924 383.427 294.991C383.287 295.031 383.134 295.058 382.994 295.085C382.994 295.085 382.994 295.085 382.981 295.085C382.396 295.191 381.81 295.285 381.224 295.352C380.753 295.405 380.231 295.592 379.823 295.859C379.581 296.019 379.174 296.366 379.135 296.713C379.033 297.594 380.167 297.687 380.753 297.621C383.465 297.327 386.127 296.579 388.623 295.432C388.967 295.271 389.4 295.004 389.604 294.644C389.744 294.39 389.795 294.03 389.578 293.803Z" fill="#740708"/>
<path d="M169.427 239.052C161.901 237.637 155.24 232.819 151.114 226.105C150.49 225.091 146.899 226.319 147.676 227.587C152.031 234.688 159.227 239.573 167.148 241.068C168.001 241.228 169.109 240.948 169.758 240.334C170.319 239.8 170.204 239.199 169.427 239.052Z" fill="#740708"/>
</svg>
