<svg width="110" height="110" viewBox="0 0 110 110" fill="none" xmlns="http://www.w3.org/2000/svg">
<path fill-rule="evenodd" clip-rule="evenodd" d="M107.925 50.0997L59.8976 2.07477C57.1337 -0.691589 52.6475 -0.691589 49.88 2.07477L39.9071 12.0479L52.5582 24.6992C55.4983 23.7059 58.8693 24.3722 61.2132 26.7161C63.5679 29.0745 64.2293 32.4745 63.2119 35.4243L75.4043 47.617C78.3541 46.6008 81.7577 47.2586 84.1136 49.6182C87.4061 52.9095 87.4061 58.2443 84.1136 61.5381C80.8199 64.8319 75.4852 64.8319 72.1903 61.5381C69.7136 59.059 69.1017 55.4212 70.3557 52.37L58.9852 40.9993L58.984 70.9222C59.7866 71.3205 60.5445 71.8504 61.2132 72.5166C64.5057 75.808 64.5057 81.1428 61.2132 84.439C57.9194 87.7316 52.5824 87.7316 49.2934 84.439C46.0009 81.1428 46.0009 75.808 49.2934 72.5166C50.1069 71.7043 51.0483 71.09 52.0525 70.6772V40.4754C51.0483 40.0651 50.1081 39.4543 49.2934 38.636C46.7987 36.1449 46.1989 32.4841 47.477 29.4209L35.0069 16.9481L2.07563 49.8777C-0.691877 52.6464 -0.691877 57.1327 2.07563 59.899L50.1033 107.925C52.8684 110.692 57.3534 110.692 60.1221 107.925L107.925 60.1223C110.692 57.3548 110.692 52.8661 107.925 50.0997Z" fill="#88B2C4"/>
</svg>
