<svg width="50" height="50" viewBox="0 0 50 50" fill="none" xmlns="http://www.w3.org/2000/svg">
<rect width="50" height="50" rx="10" fill="#F8C1CA" fill-opacity="0.74"/>
<g clip-path="url(#clip0_100_64)">
<path d="M37.9748 18.6441C37.9139 17.2626 37.6905 16.3128 37.3705 15.4899C37.0403 14.6163 36.5324 13.8342 35.867 13.184C35.2168 12.5237 34.4295 12.0107 33.5661 11.6857C32.7383 11.3657 31.7935 11.1423 30.4121 11.0813C29.0203 11.0153 28.5784 11 25.0484 11C21.5185 11 21.0766 11.0153 19.69 11.0762C18.3085 11.1371 17.3587 11.3607 16.536 11.6805C15.6622 12.0107 14.8801 12.5186 14.2299 13.184C13.5696 13.8342 13.0568 14.6215 12.7316 15.4849C12.4116 16.3128 12.1882 17.2574 12.1272 18.6389C12.0612 20.0307 12.0459 20.4726 12.0459 24.0025C12.0459 27.5325 12.0612 27.9744 12.1221 29.361C12.183 30.7425 12.4066 31.6922 12.7266 32.5152C13.0568 33.3888 13.5696 34.1709 14.2299 34.8211C14.8801 35.4813 15.6673 35.9944 16.5308 36.3194C17.3587 36.6394 18.3033 36.8628 19.685 36.9237C21.0715 36.9848 21.5135 36.9999 25.0435 36.9999C28.5735 36.9999 29.0153 36.9848 30.4019 36.9237C31.7834 36.8628 32.7332 36.6394 33.556 36.3194C35.3033 35.6438 36.6848 34.2624 37.3603 32.5152C37.6802 31.6873 37.9038 30.7425 37.9647 29.361C38.0256 27.9744 38.0409 27.5325 38.0409 24.0025C38.0409 20.4726 38.0357 20.0307 37.9748 18.6441ZM35.6334 29.2594C35.5775 30.5292 35.3642 31.2149 35.1864 31.672C34.7496 32.8047 33.8506 33.7037 32.7179 34.1405C32.2608 34.3183 31.5701 34.5316 30.3053 34.5873C28.934 34.6484 28.5227 34.6635 25.0536 34.6635C21.5845 34.6635 21.1681 34.6484 19.8017 34.5873C18.5319 34.5316 17.8462 34.3183 17.3891 34.1405C16.8254 33.9322 16.3124 33.6021 15.8959 33.1703C15.4642 32.7487 15.134 32.2408 14.9257 31.6772C14.7479 31.22 14.5347 30.5292 14.4789 29.2646C14.4178 27.8932 14.4027 27.4817 14.4027 24.0127C14.4027 20.5436 14.4178 20.1271 14.4789 18.7609C14.5347 17.4912 14.7479 16.8055 14.9257 16.3484C15.134 15.7845 15.4642 15.2716 15.9011 14.855C16.3225 14.4232 16.8304 14.0931 17.3942 13.885C17.8514 13.7072 18.5422 13.4939 19.8068 13.438C21.1782 13.3771 21.5897 13.3618 25.0586 13.3618C28.5328 13.3618 28.9441 13.3771 30.3105 13.438C31.5803 13.4939 32.2659 13.7072 32.7231 13.885C33.2867 14.0931 33.7998 14.4232 34.2162 14.855C34.648 15.2766 34.9781 15.7845 35.1864 16.3484C35.3642 16.8055 35.5775 17.4961 35.6334 18.7609C35.6943 20.1323 35.7096 20.5436 35.7096 24.0127C35.7096 27.4817 35.6943 27.8881 35.6334 29.2594Z" fill="#D73234"/>
<path d="M25.0482 17.3237C21.3609 17.3237 18.3691 20.3153 18.3691 24.0028C18.3691 27.6903 21.3609 30.6818 25.0482 30.6818C28.7357 30.6818 31.7272 27.6903 31.7272 24.0028C31.7272 20.3153 28.7357 17.3237 25.0482 17.3237ZM25.0482 28.3353C22.656 28.3353 20.7157 26.3951 20.7157 24.0028C20.7157 21.6104 22.656 19.6702 25.0482 19.6702C27.4405 19.6702 29.3807 21.6104 29.3807 24.0028C29.3807 26.3951 27.4405 28.3353 25.0482 28.3353Z" fill="#D73234"/>
<path d="M33.5508 17.0592C33.5508 17.9203 32.8526 18.6185 31.9914 18.6185C31.1303 18.6185 30.4321 17.9203 30.4321 17.0592C30.4321 16.198 31.1303 15.5 31.9914 15.5C32.8526 15.5 33.5508 16.198 33.5508 17.0592Z" fill="#D73234"/>
</g>
<defs>
<clipPath id="clip0_100_64">
<rect width="26" height="26" fill="white" transform="translate(12 11)"/>
</clipPath>
</defs>
</svg>
