<svg width="126" height="122" viewBox="0 0 126 122" fill="none" xmlns="http://www.w3.org/2000/svg">
<g clip-path="url(#clip0_20_885)">
<path d="M46.6623 94.3494C46.6623 94.3494 41.8473 97.0606 50.089 97.978C60.0736 99.0809 65.1765 98.9227 76.1796 96.9063C76.1796 96.9063 79.0724 98.6626 83.1124 100.184C58.4465 110.42 27.2886 99.5909 46.6623 94.3494Z" fill="#88B2C4"/>
<path d="M43.6491 80.9922C43.6491 80.9922 38.2486 84.8628 46.4964 85.6889C57.1622 86.7543 65.5853 86.8414 80.1603 84.124C80.1603 84.124 82.1762 86.1029 85.3462 87.185C55.5236 95.6287 22.3067 87.8509 43.6491 80.9922Z" fill="#88B2C4"/>
<path d="M69.0582 58.3342C75.1358 65.1094 67.4613 71.2063 67.4613 71.2063C67.4613 71.2063 82.8936 63.4926 75.8062 53.8332C69.1869 44.8253 64.1107 40.3496 91.591 24.918C91.591 24.918 48.456 35.3491 69.0582 58.3342Z" fill="#88B2C4"/>
<path d="M101.681 104.229C101.681 104.229 105.244 107.072 97.7565 109.271C83.519 113.447 38.4986 114.708 25.9921 109.437C21.4963 107.544 29.9271 104.916 32.5792 104.364C35.3449 103.784 36.9255 103.892 36.9255 103.892C31.9257 100.481 4.60918 110.588 23.05 113.482C73.3409 121.379 114.725 109.926 101.681 104.229Z" fill="#88B2C4"/>
<path d="M48.9788 67.1529C48.9788 67.1529 26.0785 72.4194 40.8692 74.3319C47.1143 75.1415 59.5637 74.9583 71.1601 74.0175C80.6373 73.2435 90.1535 71.5977 90.1535 71.5977C90.1535 71.5977 86.8117 72.9834 84.394 74.5818C61.1392 80.5037 16.2152 77.7488 29.1482 71.6914C40.0857 66.5722 48.9788 67.1529 48.9788 67.1529Z" fill="#88B2C4"/>
<path d="M90.0586 89.3862C113.698 77.4922 102.768 66.0621 95.1392 67.602C93.2693 67.9788 92.4355 68.3053 92.4355 68.3053C92.4355 68.3053 93.1297 67.2524 94.4555 66.7967C109.548 61.659 121.155 81.9494 89.5835 89.9857C89.5835 89.986 89.9493 89.6694 90.0586 89.3862Z" fill="#88B2C4"/>
<path d="M75.8067 0C75.8067 0 88.8987 12.6806 63.3896 32.1799C42.9338 47.8216 58.725 56.7401 63.3811 66.9299C51.4407 56.4988 42.6781 47.3162 48.5567 38.7699C57.1852 26.2248 81.089 20.1424 75.8067 0Z" fill="#88B2C4"/>
<path d="M51.3009 121.616C73.992 123.023 108.837 120.836 109.662 110.44C109.662 110.44 108.076 114.381 90.909 117.511C71.5417 121.04 47.6548 120.628 33.4873 118.366C33.4876 118.366 36.3876 120.69 51.3009 121.616Z" fill="#88B2C4"/>
</g>
<defs>
<clipPath id="clip0_20_885">
<rect width="126" height="122" fill="white"/>
</clipPath>
</defs>
</svg>
