<svg width="96" height="91" viewBox="0 0 96 91" fill="none" xmlns="http://www.w3.org/2000/svg">
<g clip-path="url(#clip0_20_902)">
<path d="M87.339 4.72269C85.9945 7.7802 84.2733 10.6763 82.2113 13.3506C73.1767 4.79157 60.9268 -0.017084 48.1538 -0.0185547C21.738 -0.0185547 4.46305e-08 20.6043 4.46305e-08 45.672C-0.000280855 51.8621 1.3254 57.9879 3.8967 63.678C6.46801 69.3681 10.2314 74.5041 14.9587 78.7747L16.7347 80.2676C25.4145 87.2045 36.4002 91.0121 47.7533 91.0184C72.8685 91.0184 93.981 72.3634 95.769 48.5875C97.0823 36.9488 93.4808 22.2281 87.339 4.72269ZM21.8002 79.0349C21.4136 79.4864 20.9256 79.8505 20.3717 80.1007C19.8178 80.3509 19.212 80.4807 18.5985 80.4809C16.335 80.4809 14.4833 78.7149 14.4833 76.5693C14.4833 74.4244 16.347 72.6585 18.5985 72.6585C19.536 72.6585 20.4622 72.9663 21.1875 73.5358C22.9508 74.8865 23.226 77.3634 21.8002 79.0349ZM87.1395 65.3578C75.2572 80.3743 49.8795 75.3131 33.6075 76.0361C33.6075 76.0361 30.7185 76.2025 27.8167 76.6525C27.8167 76.6525 28.9042 76.2139 30.318 75.7041C41.7375 71.9354 47.1405 71.2003 54.0817 67.8227C67.152 61.5174 80.0723 47.7216 82.7617 33.3685C77.784 47.1763 62.6993 59.0404 48.954 63.8642C39.5363 67.1594 22.5255 70.3593 22.5255 70.3593L21.8377 70.0152C10.2563 64.6704 9.90525 40.8831 30.9555 33.2028C40.1737 29.8366 48.9915 31.6857 58.9478 29.4335C69.579 27.0397 81.8737 19.4775 86.8763 9.61678C92.4795 25.3925 99.222 50.0919 87.1395 65.3578Z" fill="#88B2C4"/>
</g>
<defs>
<clipPath id="clip0_20_902">
<rect width="96" height="91" fill="white"/>
</clipPath>
</defs>
</svg>
