<svg width="92" height="93" viewBox="0 0 92 93" fill="none" xmlns="http://www.w3.org/2000/svg">
<path d="M16.2941 34.1484H87.9319V87.6743H16.2941V34.1484Z" fill="#DCD1C2"/>
<path d="M1.07812 46.4346V81.8447C1.07812 87.3676 5.55528 91.8447 11.0781 91.8447H80.9219C86.4447 91.8447 90.9219 87.3676 90.9219 81.8447V11.0244C90.9219 5.50157 86.4447 1.02441 80.9219 1.02441H11.0781C5.55528 1.02441 1.07812 5.50157 1.07812 11.0244V46.4346ZM73.4778 42.8092C73.4778 42.8054 73.4814 42.8026 73.4851 42.8035C75.6341 43.3091 77.5871 44.4461 79.0984 46.0713C79.3243 46.309 79.5422 46.554 79.7517 46.8059C80.8601 48.1383 80.5462 49.5474 79.1149 50.5248C77.8326 51.4003 76.2213 52.4679 75.0088 53.2279C74.9225 53.2861 74.5775 52.9082 74.1966 52.3343C73.7649 51.5813 73.1515 50.9512 72.4137 50.5027C71.676 50.0542 70.8378 49.8019 69.9775 49.7695C67.2534 49.5806 65.4997 51.0264 65.5141 53.4023C65.4915 53.9938 65.6255 54.5807 65.9022 55.1025C66.4987 56.3594 67.6128 57.1078 71.1059 58.6335C77.5387 61.4308 80.2916 63.2763 82.0022 65.8992C83.9141 68.8054 84.3381 73.499 83.0444 76.972C81.6069 80.7501 78.085 83.3149 73.1041 84.165C70.8291 84.4284 68.5305 84.404 66.2616 84.0923C62.784 83.5128 59.5807 81.825 57.1191 79.2752C56.5877 78.682 55.7326 77.4764 55.2163 76.6445C54.8743 76.0934 55.0396 75.5521 55.6097 75.2428L58.9375 73.3828L60.6808 72.3618C61.1509 72.0864 61.7541 72.2251 62.0569 72.678C62.9666 73.9935 64.1244 75.1145 65.4638 75.9766C68.3388 77.5024 72.2631 77.2917 74.2038 75.5261C74.8553 74.8792 75.2618 74.0217 75.3524 73.103C75.443 72.1843 75.2121 71.2626 74.6997 70.4983C73.9809 69.4884 72.5434 68.6383 68.5256 66.8655C63.8897 64.8457 61.8916 63.596 60.0659 61.6052C58.9262 60.2915 58.0848 58.7416 57.6006 57.0642C57.2395 55.1478 57.1861 53.1852 57.4425 51.2517C58.3984 46.7252 61.755 43.5646 66.6569 42.6274C68.9246 42.3437 71.2217 42.407 73.4708 42.815C73.4745 42.8157 73.4778 42.8129 73.4778 42.8092ZM52.3897 46.6089C52.3897 48.6634 50.7242 50.3289 48.6697 50.3289H46.557C43.3357 50.3289 40.7244 52.9403 40.7244 56.1616V79.7815C40.7244 82.066 38.8724 83.9179 36.588 83.9179C34.3035 83.9179 32.4516 82.066 32.4516 79.7815V56.1687C32.4516 52.9395 29.8338 50.3217 26.6045 50.3217H24.3903C22.384 50.3217 20.7575 48.6952 20.7575 46.6889C20.7535 46.5522 20.7503 46.4155 20.7479 46.2788C20.7094 44.1059 22.015 42.8899 24.1883 42.8802C27.0947 42.8671 31.6207 42.8671 36.6562 42.8671H48.6045C50.6781 42.8671 52.3658 44.5355 52.3897 46.6089Z" fill="#726655"/>
</svg>
