<svg width="50" height="50" viewBox="0 0 50 50" fill="none" xmlns="http://www.w3.org/2000/svg">
<rect width="50" height="50" rx="10" fill="#F8C1CA" fill-opacity="0.74"/>
<path d="M35.8882 14.1222C35.6638 13.892 35.3771 13.7324 35.0632 13.6629C34.7493 13.5935 34.422 13.6173 34.1215 13.7315L14.7127 20.9416C14.3902 21.0669 14.1143 21.2888 13.9228 21.5769C13.7312 21.8651 13.6334 22.2054 13.6427 22.5513C13.652 22.8971 13.7679 23.2317 13.9747 23.5091C14.1814 23.7866 14.4688 23.9933 14.7976 24.1012C14.7976 24.1012 23.2603 26.7609 23.2646 26.7648L25.8988 35.2027C26.0067 35.5315 26.2135 35.819 26.491 36.0257C26.7686 36.2323 27.1032 36.3482 27.4491 36.3574C27.795 36.3666 28.1353 36.2686 28.4234 36.0769C28.7115 35.8852 28.9332 35.6091 29.0584 35.2865L36.2685 15.8785C36.3813 15.5803 36.4054 15.2558 36.3379 14.9441C36.2705 14.6325 36.1143 14.347 35.8882 14.1222ZM32.9511 15.9001L23.6795 25.1715L15.2499 22.5626L32.9511 15.9001ZM27.4492 34.7187L24.8285 26.3204L34.0999 17.0489L27.4492 34.7187Z" fill="#D73234"/>
</svg>
