<svg width="102" height="85" viewBox="0 0 102 85" fill="none" xmlns="http://www.w3.org/2000/svg">
<path d="M44.1792 36.9058C40.4252 36.9058 46.8261 -0.936537 30.8207 3.33642C15.6032 7.39903 36.8815 36.9058 33.306 36.9058C29.7304 36.9058 4.73992 35.2067 3.07618 44.4589C1.21809 54.7919 33.9557 49.0081 34.931 50.3335C35.9064 51.659 22.0771 67.3524 30.8207 72.1536C39.879 77.1276 51.4454 58.7259 53.4274 58.7259C55.4093 58.7259 65.6529 88.8718 73.9789 80.5459C80.7454 73.7795 64.6154 58.7259 67.8134 58.7259C71.0115 58.7259 94.8707 60.2552 98.6407 50.3335C103.248 38.2081 62.0728 46.8666 59.5928 44.4589C57.1128 42.0511 79.4399 22.7239 67.8134 17.6034C56.3337 12.5475 47.9332 36.9058 44.1792 36.9058Z" stroke="#88B2C4" stroke-width="5" stroke-linecap="round"/>
</svg>
