<svg width="109" height="103" viewBox="0 0 109 103" fill="none" xmlns="http://www.w3.org/2000/svg">
<path fill-rule="evenodd" clip-rule="evenodd" d="M108.68 61.5031C108.025 59.6905 106.31 58.4278 104.091 58.1246C103.045 57.9819 101.846 58.0428 100.429 58.31C97.9575 58.7759 96.124 58.9532 94.786 58.9878C99.8363 51.1946 103.943 42.3075 106.307 33.9419C110.13 20.4153 108.087 14.253 105.7 11.4655C99.3825 4.08798 90.165 0.124423 79.0445 0.00292539C73.1127 -0.0632415 67.9047 1.00719 65.1884 1.77675C62.6589 1.36914 59.939 1.14136 57.0851 1.09917C51.7364 1.02125 47.01 2.08684 42.9715 4.27703C40.7351 3.58631 37.1472 2.61225 33.0032 1.99047C23.2568 0.52811 15.4017 1.6677 9.65618 5.3772C2.69873 9.8687 -0.526717 17.6722 0.0698883 28.5713C0.259086 32.0318 2.37735 42.5602 5.71228 52.5454C7.62899 58.2844 9.67283 63.0505 11.7871 66.712C14.7852 71.9042 17.9933 74.9619 21.5948 76.0598C23.6137 76.6746 27.2814 77.1048 31.1393 74.1691C31.6281 74.7099 32.2802 75.2478 33.1463 75.7471C34.2456 76.3809 35.5902 76.8987 36.9328 77.2056C41.7719 78.3113 46.3046 78.0346 50.1716 76.4851C50.1953 77.1136 50.2137 77.7142 50.2293 78.2327C50.2551 79.0739 50.2803 79.8986 50.3141 80.6698C50.5432 85.8852 50.9314 89.9403 52.0817 92.7774C52.1448 92.9337 52.2298 93.1714 52.3196 93.4234C52.8933 95.0294 53.8531 97.7175 56.2943 99.8231C58.8227 102.004 61.8807 102.673 64.6813 102.673C66.0859 102.673 67.4262 102.504 68.6015 102.274C72.7919 101.454 77.5506 100.203 80.993 95.7235C84.2474 91.4886 85.8296 85.1103 86.116 75.0599C86.153 74.7758 86.1873 74.5045 86.2204 74.2458C86.2426 74.0713 86.2653 73.8929 86.2882 73.7149L87.0551 73.7764L87.2527 73.7887C91.5205 73.9664 96.7388 73.1392 99.9436 71.7787C102.476 70.7046 110.591 66.7895 108.68 61.5031Z" fill="#726655"/>
<path fill-rule="evenodd" clip-rule="evenodd" d="M101.316 63.0605C88.6474 65.4772 87.7766 61.5105 87.7766 61.5105C101.152 43.1553 106.744 19.856 101.918 14.1537C88.7545 -1.40125 65.967 5.95523 65.5867 6.14622L65.4643 6.16648C62.9615 5.68599 60.1604 5.39974 57.0124 5.35223C51.2801 5.26535 46.932 6.74201 43.6326 9.05597C43.6326 9.05597 2.98195 -6.43142 4.87255 28.5343C5.27475 35.973 16.401 84.8188 29.672 70.0651C34.5226 64.6702 39.2092 60.1086 39.2092 60.1086C41.537 61.5387 44.3236 62.2681 47.245 62.0061L47.472 61.8279C47.4014 62.4978 47.4337 63.153 47.5629 63.9286C44.1441 67.4611 45.1487 68.0814 38.3144 69.3824C31.3989 70.7004 35.4615 73.047 38.1139 73.6603C41.3295 74.404 48.7687 75.4574 53.7953 68.9499L53.5948 69.6924C54.9344 70.6846 55.875 76.1466 55.7174 81.0978C55.5597 86.0493 55.4545 89.4486 56.5099 92.1038C57.5654 94.7589 58.6174 100.733 67.6017 98.9527C75.109 97.4649 78.9992 93.6093 79.5405 87.1779C79.9245 82.6057 80.7936 83.2816 80.8485 79.1938L81.5456 77.2585C82.3495 71.0605 81.6733 69.061 86.2985 69.991L87.4225 70.0823C90.8267 70.2255 95.2821 69.5759 97.897 68.4519C103.528 66.0352 106.867 62.0003 101.315 63.0605H101.316Z" fill="#726655"/>
<path fill-rule="evenodd" clip-rule="evenodd" d="M45.8912 32.2867C44.6369 32.1799 43.5005 32.2787 42.9257 32.5448C42.6022 32.6947 42.5023 32.8682 42.4754 32.9877C42.4032 33.3041 42.7657 33.6538 42.9883 33.8342C43.6182 34.345 44.5387 34.696 45.4498 34.7734C45.5818 34.7846 45.713 34.79 45.8436 34.79C47.363 34.79 48.7441 34.0665 48.8658 33.5324C49.0181 32.8636 47.4306 32.4177 45.8912 32.2867Z" fill="#E3DACD"/>
<path fill-rule="evenodd" clip-rule="evenodd" d="M84.1234 32.0816H84.1232C84.0083 31.4735 82.5421 31.3 81.151 31.4428C79.762 31.5858 78.4148 32.0486 78.5273 32.6582C78.6178 33.1323 79.7767 33.9416 81.1492 33.9414C81.2649 33.9414 81.3819 33.9357 81.4997 33.9235C82.4158 33.8298 83.0879 33.4003 83.4071 33.1527C83.8936 32.7756 84.1748 32.355 84.1234 32.0816Z" fill="#E3DACD"/>
<path fill-rule="evenodd" clip-rule="evenodd" d="M105.766 62.4261C105.281 61.0854 103.722 60.6538 101.13 61.1436C93.4363 62.5965 90.681 61.59 89.776 60.9804C95.7566 52.6442 100.676 42.568 103.33 33.1663C104.588 28.713 105.282 24.5772 105.339 21.2064C105.402 17.5059 104.713 14.7872 103.292 13.1263C97.5653 6.43039 89.1601 2.83879 78.9854 2.74009C71.9907 2.6682 66.0808 4.30622 64.9351 4.7667C62.5223 4.21769 59.8921 3.88065 57.0289 3.83765C51.7777 3.75998 47.2389 4.91025 43.4809 7.25472C41.8485 6.699 37.6299 5.37397 32.4712 4.61367C23.5518 3.2995 16.4644 4.29513 11.4065 7.57372C5.37135 11.4859 2.5852 18.4791 3.1251 28.3586C3.30675 31.6827 5.3764 41.9078 8.64308 51.7004C12.9428 64.5889 17.6165 71.8854 22.5344 73.3861C23.11 73.5618 23.7739 73.6847 24.5056 73.6847C26.2996 73.6847 28.4988 72.9448 30.7873 70.4276C34.5883 66.2436 38.1372 62.7375 39.4454 61.4636C41.3786 62.4132 43.5021 62.9432 45.6746 62.9964C45.6783 63.0484 45.6842 63.1004 45.6892 63.1522C45.2534 63.6252 44.8959 64.0396 44.5912 64.3936C43.0862 66.1416 42.7729 66.5055 37.9283 67.4183C36.5503 67.6784 32.8898 68.3687 32.8365 70.7161C32.7781 73.2809 37.1627 74.3581 37.6625 74.4723C39.4034 74.8711 41.0805 75.0678 42.68 75.0678C46.5702 75.0676 49.9932 73.8979 52.7291 71.6345C52.6447 80.7782 53.0616 89.7883 54.2614 92.5336C55.2439 94.7807 57.6448 100.273 65.2284 100.273C66.3408 100.273 67.5659 100.154 68.9132 99.8902C76.8275 98.3374 80.2642 95.137 81.5939 88.0809C82.3053 84.3099 83.5264 75.3047 84.1004 70.4746C85.3123 70.8204 86.8726 70.9787 88.5593 70.9785C92.0771 70.9785 96.1361 70.2947 98.6817 69.2136C101.541 67.9986 106.702 65.0165 105.766 62.4261ZM86.9158 29.7858C86.8896 31.2118 86.6751 32.5063 86.4477 33.8577C86.2031 35.3111 85.95 36.8136 85.8863 38.6377C85.8234 40.4128 86.0657 42.2585 86.3002 44.043C86.7736 47.6478 87.2594 51.3591 85.3785 55.0212C85.0862 54.5462 84.804 54.0279 84.5453 53.4539C84.3116 52.9354 83.804 52.1026 83.1014 50.9498C80.3668 46.4629 73.9633 35.9555 77.2414 31.6679C78.2176 30.3914 80.6955 29.0796 86.9158 29.7858ZM79.3765 5.62773C88.4929 5.81197 95.7041 8.93245 100.81 14.902C104.726 19.4809 100.414 40.3157 87.9305 58.2899C87.8072 58.1465 87.6816 58.0018 87.5518 57.8534C87.5 57.794 87.4472 57.7337 87.3939 57.6727C90.6196 52.7981 89.9888 47.9753 89.4274 43.6993C89.1967 41.9445 88.979 40.2871 89.0343 38.7304C89.0917 37.0799 89.3301 35.6649 89.5606 34.2964C89.8443 32.6099 90.1325 30.865 90.053 28.8079C90.1123 28.5922 90.1363 28.3373 90.1053 28.0347C89.9021 26.0619 87.4409 20.1587 82.4239 14.8149C79.6799 11.8925 75.6778 8.62177 70.2136 6.41577C72.564 5.97008 75.7781 5.55445 79.3765 5.62773ZM28.3625 68.5852C25.8414 71.3587 24.1002 70.8273 23.5277 70.6527C19.7969 69.514 15.4684 62.2996 11.6519 50.8591C8.34964 40.96 6.41969 31.0058 6.2671 28.2145C5.7848 19.3868 8.12352 13.2344 13.2186 9.92831C21.5103 4.54797 35.143 7.76832 40.6208 9.40172C40.542 9.47269 40.4601 9.53926 40.3821 9.61139C31.3933 17.9178 31.6065 32.1094 31.6285 32.9767C31.6277 33.3115 31.6583 33.7853 31.7005 34.4372C31.8551 36.824 32.1428 41.2665 31.3741 46.2976C30.6593 50.9726 32.2343 55.5485 35.6945 58.8518C36.0528 59.1937 36.4267 59.5148 36.813 59.8169C35.2726 61.3262 31.9253 64.6635 28.3625 68.5852ZM37.9685 56.8581C35.1796 54.1958 33.9131 50.4924 34.4932 46.6966C35.3052 41.382 35.0053 36.7534 34.8443 34.2667C34.8218 33.9188 34.8019 33.6139 34.79 33.3733C36.1033 32.3081 42.1887 29.3244 46.5283 30.2343C48.5091 30.6495 49.7154 31.8832 50.2172 34.0057C52.8139 44.9937 50.561 49.5735 48.7508 53.2536C48.3777 54.0118 48.0252 54.7284 47.7241 55.47L47.4909 56.0431C46.9002 57.4922 46.3507 58.8395 46.0102 60.1189C43.0456 60.1106 40.1615 58.952 37.9685 56.8581ZM38.4249 71.6769C37.5593 71.479 36.7807 71.1353 36.3239 70.8502C36.7054 70.6859 37.3845 70.4626 38.5621 70.2407C44.2614 69.1669 45.1414 68.4094 47.0635 66.1763C47.5044 65.6645 48.0038 65.0841 48.6956 64.3772C48.6958 64.3767 48.6961 64.3765 48.6963 64.3763C49.7269 63.3208 50.1981 63.4997 51.0527 63.824C51.7455 64.0864 52.4201 64.8807 52.6937 65.7549C52.823 66.1678 52.9685 66.9517 52.4928 67.5612C48.4776 72.7051 42.6268 72.639 38.4249 71.6769ZM68.2503 97.0728C61.2781 98.4396 58.8095 95.1846 57.1827 91.4636C56.1327 89.0611 55.6168 78.2281 55.9829 66.2651C55.9877 66.1058 55.963 65.9521 55.915 65.8076C55.8733 65.5286 55.8091 65.2464 55.7202 64.9623C55.1755 63.2216 53.8488 61.7655 52.2572 61.1619C51.6248 60.9222 50.4639 60.4823 49.0691 60.8087C49.3667 59.6873 49.8826 58.4212 50.4417 57.05L50.6764 56.473C50.9407 55.8227 51.2719 55.1491 51.6225 54.4362C53.5169 50.5855 56.1113 45.3115 53.2955 33.3966C52.2408 28.934 48.7189 26.7548 43.3798 27.2608C40.1788 27.5639 37.2507 28.7456 35.7901 29.4231C35.4761 29.5688 35.1888 29.7093 34.9205 29.8464C35.328 25.3498 36.8684 16.9468 42.6297 11.6302C46.2569 8.28296 51.0879 6.62991 56.974 6.71891C68.5716 6.89274 76.0087 12.3385 80.2059 16.8765C83.8225 20.7871 85.781 24.7261 86.5626 26.8505C80.6849 26.3038 76.6873 27.3655 74.6606 30.0163C70.252 35.7824 77.0726 46.9745 80.3506 52.3532C80.9517 53.3391 81.4706 54.1909 81.6338 54.5529C82.7012 56.9201 84.0832 58.5003 85.0922 59.654C85.4015 60.0075 85.7016 60.3503 85.9298 60.6497C84.1496 61.1194 80.9519 62.2042 81.2432 67.6276C81.0083 70.3491 79.3368 83.0899 78.4879 87.5913C77.3672 93.5383 74.9754 95.7535 68.2503 97.0728ZM97.3529 66.6001C95.5326 67.3733 92.4862 67.9533 89.5922 68.0777C86.3958 68.2148 84.7687 67.7501 84.386 67.4644C84.2061 64.0848 85.5812 63.7316 87.0362 63.3578C87.2649 63.2988 87.4879 63.2417 87.7032 63.1729C87.8371 63.2725 87.9836 63.3714 88.1441 63.4683C90.7132 65.0199 95.2956 65.1872 101.765 63.9655C101.788 63.9609 101.812 63.9567 101.836 63.9523C100.963 64.6988 99.4701 65.7006 97.3529 66.6001Z" fill="#E3DACD"/>
</svg>
