<svg width="30" height="30" viewBox="0 0 30 30" fill="none" xmlns="http://www.w3.org/2000/svg">
<g clip-path="url(#clip0_42_282)">
<path d="M19.4619 0C13.7806 0 9.15854 4.62205 9.15854 10.3033C9.15854 13.1051 10.2832 15.6488 12.1041 17.508L10.4282 19.184C10.0656 18.9376 9.6406 18.7994 9.19024 18.7876C8.54768 18.7707 7.94381 19.0116 7.48929 19.4658L0.638953 26.3162C0.378405 26.5768 0.234863 26.9232 0.234863 27.2918C0.234863 27.6604 0.378405 28.0068 0.638953 28.2673L1.96752 29.5959C2.22813 29.8565 2.57457 30 2.94308 30C3.3116 30 3.65809 29.8565 3.91864 29.5959L10.6945 22.8201C11.5292 21.9854 11.6603 20.7186 11.05 19.8075L12.7464 18.1111C14.5513 19.6656 16.8987 20.6067 19.4619 20.6067C25.1431 20.6067 29.7652 15.9846 29.7652 10.3033C29.7652 4.62205 25.1431 0 19.4619 0ZM10.0718 22.1974L3.29598 28.9732C3.20175 29.0674 3.07641 29.1194 2.94308 29.1194C2.80976 29.1194 2.68447 29.0675 2.59024 28.9732L1.26167 27.6446C1.16745 27.5504 1.11549 27.4251 1.11549 27.2918C1.11549 27.1585 1.16739 27.0332 1.26167 26.9389L8.11195 20.0886C8.38465 19.8161 8.74418 19.6674 9.12813 19.6674C9.14116 19.6674 9.1542 19.6676 9.16723 19.668C9.56551 19.6784 9.93238 19.8479 10.2003 20.1454C10.703 20.7033 10.6453 21.6238 10.0718 22.1974ZM19.4619 19.726C14.2662 19.726 10.0392 15.499 10.0392 10.3033C10.0392 5.10763 14.2662 0.880626 19.4619 0.880626C24.6576 0.880626 28.8846 5.10763 28.8846 10.3033C28.8846 15.499 24.6576 19.726 19.4619 19.726Z" fill="black" fill-opacity="0.2"/>
<path d="M19.4618 1.87866C14.8164 1.87866 11.0371 5.65796 11.0371 10.3033C11.0371 14.9487 14.8164 18.728 19.4618 18.728C24.1071 18.728 27.8864 14.9487 27.8864 10.3033C27.8864 5.65796 24.1071 1.87866 19.4618 1.87866ZM19.4618 17.8474C15.302 17.8474 11.9177 14.4631 11.9177 10.3033C11.9177 6.14354 15.302 2.75929 19.4618 2.75929C23.6216 2.75929 27.0058 6.14354 27.0058 10.3033C27.0058 14.4631 23.6216 17.8474 19.4618 17.8474Z" fill="black" fill-opacity="0.2"/>
<path d="M25.8327 8.79291C25.2685 6.40441 23.3606 4.49657 20.972 3.93244C20.7354 3.87649 20.4982 4.02308 20.4423 4.25974C20.3864 4.49639 20.533 4.73357 20.7696 4.78946C22.8365 5.27762 24.4874 6.92856 24.9757 8.99533C25.0236 9.19794 25.2043 9.33449 25.4039 9.33449C25.4374 9.33449 25.4714 9.33062 25.5054 9.32257C25.7421 9.26674 25.8886 9.02956 25.8327 8.79291Z" fill="black" fill-opacity="0.2"/>
</g>
<defs>
<clipPath id="clip0_42_282">
<rect width="30" height="30" fill="white"/>
</clipPath>
</defs>
</svg>
