<svg width="178" height="175" viewBox="0 0 178 175" fill="none" xmlns="http://www.w3.org/2000/svg">
<path d="M85.818 5.00771C77.942 4.21445 59.3632 64.8988 53.9099 64.8988C48.4566 64.8988 6.65356 59.346 5.03796 64.8988C3.42236 70.4516 53.9099 106.148 53.9099 111.304C53.9099 116.461 42.1968 166.039 45.6299 169.807C49.0631 173.575 81.981 120.824 85.818 121.815C89.6551 122.807 139.335 172.584 142.364 169.807C145.393 167.031 114.899 116.857 114.899 111.304C114.899 105.752 169.627 69.2617 172.859 64.8988C176.09 60.5358 122.977 64.8988 114.899 64.8988C106.821 64.8988 93.6941 5.80097 85.818 5.00771Z" stroke="white" stroke-width="10" stroke-linecap="round"/>
</svg>
